<svg width="94" height="30" viewBox="0 0 94 30" fill="none" xmlns="http://www.w3.org/2000/svg">
<rect width="94" height="30" rx="4" fill="#161316"/>
<g clip-path="url(#clip0_265_26)">
<path d="M23.9057 14.9811C23.9057 15.3459 23.8129 15.6777 23.6274 15.9764C23.4418 16.2752 23.1918 16.5031 22.8774 16.6604C22.9528 16.9497 22.9906 17.2516 22.9906 17.566C22.9906 18.5409 22.6557 19.4434 21.9858 20.2736C21.316 21.1038 20.4025 21.7594 19.2453 22.2406C18.0881 22.7217 16.8302 22.9623 15.4717 22.9623C14.1132 22.9623 12.8569 22.7217 11.7028 22.2406C10.5487 21.7594 9.63679 21.1038 8.96698 20.2736C8.29717 19.4434 7.96226 18.5409 7.96226 17.566C7.96226 17.2704 7.99686 16.9748 8.06604 16.6792C7.74528 16.522 7.48742 16.2909 7.29245 15.9858C7.09748 15.6808 7 15.3459 7 14.9811C7 14.4654 7.18239 14.0236 7.54717 13.6557C7.91195 13.2877 8.35535 13.1038 8.87736 13.1038C9.41195 13.1038 9.86792 13.3019 10.2453 13.6981C11.6164 12.7421 13.2358 12.2327 15.1038 12.1698L16.1981 7.25472C16.217 7.17296 16.2642 7.10692 16.3396 7.0566C16.4151 7.00629 16.4969 6.99057 16.5849 7.00943L20.066 7.77358C20.1792 7.54088 20.3491 7.35377 20.5755 7.21226C20.8019 7.07075 21.0503 7 21.3208 7C21.7107 7 22.044 7.13679 22.3208 7.41038C22.5975 7.68396 22.7358 8.01572 22.7358 8.40566C22.7358 8.7956 22.5975 9.12893 22.3208 9.40566C22.044 9.68239 21.7107 9.82075 21.3208 9.82075C20.9308 9.82075 20.5991 9.68396 20.3255 9.41038C20.0519 9.13679 19.9151 8.80503 19.9151 8.41509L16.7642 7.71698L15.783 12.1698C17.6698 12.2264 19.3019 12.7296 20.6792 13.6792C21.044 13.2956 21.4937 13.1038 22.0283 13.1038C22.5503 13.1038 22.9937 13.2877 23.3585 13.6557C23.7233 14.0236 23.9057 14.4654 23.9057 14.9811ZM10.9434 16.8585C10.9434 17.2484 11.0802 17.5818 11.3538 17.8585C11.6274 18.1352 11.9591 18.2736 12.3491 18.2736C12.739 18.2736 13.0723 18.1352 13.3491 17.8585C13.6258 17.5818 13.7642 17.2484 13.7642 16.8585C13.7642 16.4686 13.6258 16.1368 13.3491 15.8632C13.0723 15.5896 12.739 15.4528 12.3491 15.4528C11.9654 15.4528 11.6352 15.5912 11.3585 15.8679C11.0818 16.1447 10.9434 16.4748 10.9434 16.8585ZM18.5849 20.2075C18.6541 20.1384 18.6887 20.0566 18.6887 19.9623C18.6887 19.8679 18.6541 19.7862 18.5849 19.717C18.522 19.6541 18.4434 19.6226 18.3491 19.6226C18.2547 19.6226 18.173 19.6541 18.1038 19.717C17.8459 19.9811 17.4654 20.1761 16.9623 20.3019C16.4591 20.4277 15.956 20.4906 15.4528 20.4906C14.9497 20.4906 14.4465 20.4277 13.9434 20.3019C13.4403 20.1761 13.0597 19.9811 12.8019 19.717C12.7327 19.6541 12.6509 19.6226 12.5566 19.6226C12.4623 19.6226 12.3836 19.6541 12.3208 19.717C12.2516 19.7799 12.217 19.8601 12.217 19.9575C12.217 20.055 12.2516 20.1384 12.3208 20.2075C12.5912 20.478 12.9638 20.6918 13.4387 20.8491C13.9135 21.0063 14.2987 21.0991 14.5943 21.1274C14.8899 21.1557 15.1761 21.1698 15.4528 21.1698C15.7296 21.1698 16.0157 21.1557 16.3113 21.1274C16.6069 21.0991 16.9921 21.0063 17.467 20.8491C17.9418 20.6918 18.3145 20.478 18.5849 20.2075ZM18.5566 18.2736C18.9465 18.2736 19.2783 18.1352 19.5519 17.8585C19.8255 17.5818 19.9623 17.2484 19.9623 16.8585C19.9623 16.4748 19.8239 16.1447 19.5472 15.8679C19.2704 15.5912 18.9403 15.4528 18.5566 15.4528C18.1667 15.4528 17.8333 15.5896 17.5566 15.8632C17.2799 16.1368 17.1415 16.4686 17.1415 16.8585C17.1415 17.2484 17.2799 17.5818 17.5566 17.8585C17.8333 18.1352 18.1667 18.2736 18.5566 18.2736Z" fill="black"/>
<path d="M23.9057 14.9811C23.9057 15.3459 23.8129 15.6777 23.6274 15.9764C23.4418 16.2752 23.1918 16.5031 22.8774 16.6604C22.9528 16.9497 22.9906 17.2516 22.9906 17.566C22.9906 18.5409 22.6557 19.4434 21.9858 20.2736C21.316 21.1038 20.4025 21.7594 19.2453 22.2406C18.0881 22.7217 16.8302 22.9623 15.4717 22.9623C14.1132 22.9623 12.8569 22.7217 11.7028 22.2406C10.5487 21.7594 9.63679 21.1038 8.96698 20.2736C8.29717 19.4434 7.96226 18.5409 7.96226 17.566C7.96226 17.2704 7.99686 16.9748 8.06604 16.6792C7.74528 16.522 7.48742 16.2909 7.29245 15.9858C7.09748 15.6808 7 15.3459 7 14.9811C7 14.4654 7.18239 14.0236 7.54717 13.6557C7.91195 13.2877 8.35535 13.1038 8.87736 13.1038C9.41195 13.1038 9.86792 13.3019 10.2453 13.6981C11.6164 12.7421 13.2358 12.2327 15.1038 12.1698L16.1981 7.25472C16.217 7.17296 16.2642 7.10692 16.3396 7.0566C16.4151 7.00629 16.4969 6.99057 16.5849 7.00943L20.066 7.77358C20.1792 7.54088 20.3491 7.35377 20.5755 7.21226C20.8019 7.07075 21.0503 7 21.3208 7C21.7107 7 22.044 7.13679 22.3208 7.41038C22.5975 7.68396 22.7358 8.01572 22.7358 8.40566C22.7358 8.7956 22.5975 9.12893 22.3208 9.40566C22.044 9.68239 21.7107 9.82075 21.3208 9.82075C20.9308 9.82075 20.5991 9.68396 20.3255 9.41038C20.0519 9.13679 19.9151 8.80503 19.9151 8.41509L16.7642 7.71698L15.783 12.1698C17.6698 12.2264 19.3019 12.7296 20.6792 13.6792C21.044 13.2956 21.4937 13.1038 22.0283 13.1038C22.5503 13.1038 22.9937 13.2877 23.3585 13.6557C23.7233 14.0236 23.9057 14.4654 23.9057 14.9811ZM10.9434 16.8585C10.9434 17.2484 11.0802 17.5818 11.3538 17.8585C11.6274 18.1352 11.9591 18.2736 12.3491 18.2736C12.739 18.2736 13.0723 18.1352 13.3491 17.8585C13.6258 17.5818 13.7642 17.2484 13.7642 16.8585C13.7642 16.4686 13.6258 16.1368 13.3491 15.8632C13.0723 15.5896 12.739 15.4528 12.3491 15.4528C11.9654 15.4528 11.6352 15.5912 11.3585 15.8679C11.0818 16.1447 10.9434 16.4748 10.9434 16.8585ZM18.5849 20.2075C18.6541 20.1384 18.6887 20.0566 18.6887 19.9623C18.6887 19.8679 18.6541 19.7862 18.5849 19.717C18.522 19.6541 18.4434 19.6226 18.3491 19.6226C18.2547 19.6226 18.173 19.6541 18.1038 19.717C17.8459 19.9811 17.4654 20.1761 16.9623 20.3019C16.4591 20.4277 15.956 20.4906 15.4528 20.4906C14.9497 20.4906 14.4465 20.4277 13.9434 20.3019C13.4403 20.1761 13.0597 19.9811 12.8019 19.717C12.7327 19.6541 12.6509 19.6226 12.5566 19.6226C12.4623 19.6226 12.3836 19.6541 12.3208 19.717C12.2516 19.7799 12.217 19.8601 12.217 19.9575C12.217 20.055 12.2516 20.1384 12.3208 20.2075C12.5912 20.478 12.9638 20.6918 13.4387 20.8491C13.9135 21.0063 14.2987 21.0991 14.5943 21.1274C14.8899 21.1557 15.1761 21.1698 15.4528 21.1698C15.7296 21.1698 16.0157 21.1557 16.3113 21.1274C16.6069 21.0991 16.9921 21.0063 17.467 20.8491C17.9418 20.6918 18.3145 20.478 18.5849 20.2075ZM18.5566 18.2736C18.9465 18.2736 19.2783 18.1352 19.5519 17.8585C19.8255 17.5818 19.9623 17.2484 19.9623 16.8585C19.9623 16.4748 19.8239 16.1447 19.5472 15.8679C19.2704 15.5912 18.9403 15.4528 18.5566 15.4528C18.1667 15.4528 17.8333 15.5896 17.5566 15.8632C17.2799 16.1368 17.1415 16.4686 17.1415 16.8585C17.1415 17.2484 17.2799 17.5818 17.5566 17.8585C17.8333 18.1352 18.1667 18.2736 18.5566 18.2736Z" fill="url(#paint0_linear_265_26)"/>
</g>
<rect x="30" width="2" height="30" fill="#F2EEFF" fill-opacity="0.1"/>
<path d="M45.692 19C45.5 19 45.332 18.944 45.188 18.832C45.044 18.712 44.972 18.564 44.972 18.388V11.212C44.972 11.036 45.032 10.892 45.152 10.78C45.272 10.66 45.416 10.6 45.584 10.6H48.968C49.4 10.6 49.796 10.708 50.156 10.924C50.516 11.132 50.804 11.424 51.02 11.8C51.244 12.168 51.356 12.592 51.356 13.072C51.356 13.392 51.292 13.7 51.164 13.996C51.036 14.284 50.864 14.54 50.648 14.764C50.432 14.988 50.188 15.156 49.916 15.268L49.784 15.04C50.032 15.128 50.248 15.256 50.432 15.424C50.616 15.584 50.76 15.776 50.864 16C50.976 16.216 51.036 16.464 51.044 16.744C51.068 16.992 51.088 17.2 51.104 17.368C51.128 17.528 51.16 17.66 51.2 17.764C51.24 17.868 51.312 17.948 51.416 18.004C51.56 18.084 51.648 18.204 51.68 18.364C51.72 18.524 51.688 18.668 51.584 18.796C51.512 18.892 51.42 18.956 51.308 18.988C51.204 19.012 51.096 19.016 50.984 19C50.872 18.976 50.776 18.944 50.696 18.904C50.568 18.824 50.436 18.712 50.3 18.568C50.172 18.416 50.068 18.208 49.988 17.944C49.908 17.68 49.868 17.332 49.868 16.9C49.868 16.7 49.836 16.528 49.772 16.384C49.708 16.24 49.62 16.124 49.508 16.036C49.396 15.94 49.264 15.872 49.112 15.832C48.96 15.784 48.792 15.76 48.608 15.76H46.064L46.232 15.52V18.388C46.232 18.564 46.184 18.712 46.088 18.832C45.992 18.944 45.86 19 45.692 19ZM46.076 14.716H48.944C49.128 14.708 49.304 14.636 49.472 14.5C49.648 14.356 49.788 14.164 49.892 13.924C50.004 13.684 50.06 13.412 50.06 13.108C50.06 12.724 49.944 12.404 49.712 12.148C49.488 11.884 49.22 11.752 48.908 11.752H46.1L46.232 11.44V14.968L46.076 14.716ZM55.8894 19.12C55.2254 19.12 54.6494 18.984 54.1614 18.712C53.6734 18.432 53.2934 18.052 53.0214 17.572C52.7574 17.084 52.6254 16.528 52.6254 15.904C52.6254 15.2 52.7654 14.6 53.0454 14.104C53.3334 13.6 53.7054 13.216 54.1614 12.952C54.6174 12.68 55.1014 12.544 55.6134 12.544C56.0054 12.544 56.3774 12.624 56.7294 12.784C57.0814 12.936 57.3934 13.152 57.6654 13.432C57.9454 13.704 58.1654 14.028 58.3254 14.404C58.4854 14.772 58.5694 15.176 58.5774 15.616C58.5694 15.776 58.5054 15.908 58.3854 16.012C58.2654 16.116 58.1254 16.168 57.9654 16.168H53.2974L53.0094 15.148H57.5214L57.2934 15.364V15.064C57.2774 14.784 57.1854 14.54 57.0174 14.332C56.8494 14.116 56.6414 13.952 56.3934 13.84C56.1454 13.72 55.8854 13.66 55.6134 13.66C55.3734 13.66 55.1414 13.7 54.9174 13.78C54.7014 13.852 54.5054 13.972 54.3294 14.14C54.1614 14.308 54.0254 14.532 53.9214 14.812C53.8254 15.084 53.7774 15.424 53.7774 15.832C53.7774 16.272 53.8694 16.656 54.0534 16.984C54.2374 17.312 54.4854 17.568 54.7974 17.752C55.1094 17.928 55.4534 18.016 55.8294 18.016C56.1254 18.016 56.3694 17.988 56.5614 17.932C56.7534 17.868 56.9134 17.792 57.0414 17.704C57.1694 17.616 57.2814 17.532 57.3774 17.452C57.4974 17.38 57.6174 17.344 57.7374 17.344C57.8814 17.344 58.0014 17.396 58.0974 17.5C58.1934 17.596 58.2414 17.712 58.2414 17.848C58.2414 18.024 58.1534 18.184 57.9774 18.328C57.7614 18.536 57.4614 18.72 57.0774 18.88C56.7014 19.04 56.3054 19.12 55.8894 19.12ZM65.1058 10.12C65.2818 10.12 65.4258 10.176 65.5378 10.288C65.6497 10.4 65.7057 10.548 65.7057 10.732V18.388C65.7057 18.564 65.6497 18.712 65.5378 18.832C65.4258 18.944 65.2818 19 65.1058 19C64.9378 19 64.7938 18.944 64.6738 18.832C64.5618 18.712 64.5058 18.564 64.5058 18.388V17.524L64.7578 17.536C64.7578 17.68 64.6978 17.844 64.5778 18.028C64.4658 18.204 64.3098 18.376 64.1098 18.544C63.9098 18.712 63.6738 18.852 63.4018 18.964C63.1298 19.068 62.8378 19.12 62.5258 19.12C61.9738 19.12 61.4778 18.98 61.0378 18.7C60.5978 18.412 60.2498 18.024 59.9938 17.536C59.7378 17.04 59.6098 16.472 59.6098 15.832C59.6098 15.192 59.7378 14.628 59.9938 14.14C60.2498 13.644 60.5938 13.256 61.0258 12.976C61.4658 12.688 61.9538 12.544 62.4898 12.544C62.8258 12.544 63.1378 12.6 63.4258 12.712C63.7218 12.824 63.9778 12.968 64.1938 13.144C64.4098 13.32 64.5778 13.508 64.6978 13.708C64.8178 13.9 64.8778 14.084 64.8778 14.26L64.5058 14.296V10.732C64.5058 10.556 64.5618 10.412 64.6738 10.3C64.7938 10.18 64.9378 10.12 65.1058 10.12ZM62.6578 18.016C63.0418 18.016 63.3738 17.92 63.6538 17.728C63.9418 17.536 64.1658 17.276 64.3258 16.948C64.4858 16.62 64.5658 16.248 64.5658 15.832C64.5658 15.416 64.4858 15.044 64.3258 14.716C64.1658 14.388 63.9418 14.128 63.6538 13.936C63.3658 13.744 63.0338 13.648 62.6578 13.648C62.2898 13.648 61.9618 13.744 61.6738 13.936C61.3938 14.128 61.1698 14.388 61.0018 14.716C60.8418 15.044 60.7618 15.416 60.7618 15.832C60.7618 16.248 60.8418 16.62 61.0018 16.948C61.1698 17.276 61.3938 17.536 61.6738 17.728C61.9618 17.92 62.2898 18.016 62.6578 18.016ZM72.5589 10.12C72.7349 10.12 72.8789 10.176 72.9909 10.288C73.1029 10.4 73.1589 10.548 73.1589 10.732V18.388C73.1589 18.564 73.1029 18.712 72.9909 18.832C72.8789 18.944 72.7349 19 72.5589 19C72.3909 19 72.2469 18.944 72.1269 18.832C72.0149 18.712 71.9589 18.564 71.9589 18.388V17.524L72.2109 17.536C72.2109 17.68 72.1509 17.844 72.0309 18.028C71.9189 18.204 71.7629 18.376 71.5629 18.544C71.3629 18.712 71.1269 18.852 70.8549 18.964C70.5829 19.068 70.2909 19.12 69.9789 19.12C69.4269 19.12 68.9309 18.98 68.4909 18.7C68.0509 18.412 67.7029 18.024 67.4469 17.536C67.1909 17.04 67.0629 16.472 67.0629 15.832C67.0629 15.192 67.1909 14.628 67.4469 14.14C67.7029 13.644 68.0469 13.256 68.4789 12.976C68.9189 12.688 69.4069 12.544 69.9429 12.544C70.2789 12.544 70.5909 12.6 70.8789 12.712C71.1749 12.824 71.4309 12.968 71.6469 13.144C71.8629 13.32 72.0309 13.508 72.1509 13.708C72.2709 13.9 72.3309 14.084 72.3309 14.26L71.9589 14.296V10.732C71.9589 10.556 72.0149 10.412 72.1269 10.3C72.2469 10.18 72.3909 10.12 72.5589 10.12ZM70.1109 18.016C70.4949 18.016 70.8269 17.92 71.1069 17.728C71.3949 17.536 71.6189 17.276 71.7789 16.948C71.9389 16.62 72.0189 16.248 72.0189 15.832C72.0189 15.416 71.9389 15.044 71.7789 14.716C71.6189 14.388 71.3949 14.128 71.1069 13.936C70.8189 13.744 70.4869 13.648 70.1109 13.648C69.7429 13.648 69.4149 13.744 69.1269 13.936C68.8469 14.128 68.6229 14.388 68.4549 14.716C68.2949 15.044 68.2149 15.416 68.2149 15.832C68.2149 16.248 68.2949 16.62 68.4549 16.948C68.6229 17.276 68.8469 17.536 69.1269 17.728C69.4149 17.92 69.7429 18.016 70.1109 18.016ZM75.968 18.388C75.968 18.564 75.912 18.712 75.8 18.832C75.688 18.944 75.544 19 75.368 19C75.2 19 75.056 18.944 74.936 18.832C74.824 18.712 74.768 18.564 74.768 18.388V13.252C74.768 13.076 74.824 12.932 74.936 12.82C75.056 12.7 75.2 12.64 75.368 12.64C75.544 12.64 75.688 12.7 75.8 12.82C75.912 12.932 75.968 13.076 75.968 13.252V18.388ZM75.356 11.848C75.124 11.848 74.956 11.808 74.852 11.728C74.748 11.64 74.696 11.496 74.696 11.296V11.104C74.696 10.904 74.752 10.764 74.864 10.684C74.976 10.604 75.144 10.564 75.368 10.564C75.608 10.564 75.78 10.608 75.884 10.696C75.988 10.776 76.04 10.912 76.04 11.104V11.296C76.04 11.504 75.984 11.648 75.872 11.728C75.768 11.808 75.596 11.848 75.356 11.848ZM77.4982 12.76H80.3182C80.4782 12.76 80.6102 12.816 80.7142 12.928C80.8262 13.032 80.8822 13.164 80.8822 13.324C80.8822 13.476 80.8262 13.604 80.7142 13.708C80.6102 13.812 80.4782 13.864 80.3182 13.864H77.4982C77.3382 13.864 77.2022 13.812 77.0902 13.708C76.9862 13.596 76.9342 13.464 76.9342 13.312C76.9342 13.152 76.9862 13.02 77.0902 12.916C77.2022 12.812 77.3382 12.76 77.4982 12.76ZM78.7582 11.2C78.9342 11.2 79.0782 11.26 79.1902 11.38C79.3022 11.492 79.3582 11.636 79.3582 11.812V17.38C79.3582 17.524 79.3822 17.64 79.4302 17.728C79.4782 17.816 79.5422 17.876 79.6222 17.908C79.7102 17.94 79.7982 17.956 79.8862 17.956C79.9742 17.956 80.0502 17.94 80.1142 17.908C80.1862 17.876 80.2702 17.86 80.3662 17.86C80.4622 17.86 80.5502 17.904 80.6302 17.992C80.7102 18.08 80.7502 18.2 80.7502 18.352C80.7502 18.544 80.6462 18.7 80.4382 18.82C80.2302 18.94 80.0062 19 79.7662 19C79.6302 19 79.4702 18.988 79.2862 18.964C79.1022 18.94 78.9222 18.88 78.7462 18.784C78.5782 18.688 78.4382 18.536 78.3262 18.328C78.2142 18.112 78.1582 17.812 78.1582 17.428V11.812C78.1582 11.636 78.2142 11.492 78.3262 11.38C78.4462 11.26 78.5902 11.2 78.7582 11.2Z" fill="#F2EEFF"/>
<defs>
<linearGradient id="paint0_linear_265_26" x1="7" y1="22.9623" x2="26.9477" y2="16.7182" gradientUnits="userSpaceOnUse">
<stop stop-color="#FFD1A7"/>
<stop offset="1" stop-color="#FF5A8B"/>
</linearGradient>
<clipPath id="clip0_265_26">
<rect width="16.9057" height="16" fill="white" transform="translate(7 7)"/>
</clipPath>
</defs>
</svg>
