<svg width="98" height="30" viewBox="0 0 98 30" fill="none" xmlns="http://www.w3.org/2000/svg">
<rect width="98" height="30" rx="4" fill="#161316"/>
<path d="M20.538 10.0134C19.5247 9.541 18.4275 9.19814 17.2846 9.00004C17.2746 8.99971 17.2646 9.0016 17.2554 9.00554C17.2462 9.00949 17.2379 9.01542 17.2313 9.02289C17.0941 9.27433 16.9341 9.60196 16.8274 9.85339C15.6152 9.67053 14.3824 9.67053 13.1702 9.85339C13.0635 9.59434 12.9035 9.27433 12.7588 9.02289C12.7511 9.00765 12.7283 9.00004 12.7054 9.00004C11.5625 9.19814 10.473 9.541 9.452 10.0134C9.44438 10.0134 9.43676 10.021 9.42914 10.0286C7.35671 13.1297 6.78526 16.1469 7.06717 19.1336C7.06717 19.1489 7.07479 19.1641 7.09003 19.1717C8.4615 20.1775 9.77963 20.787 11.0825 21.1908C11.1054 21.1985 11.1282 21.1908 11.1359 21.1756C11.4406 20.7565 11.7149 20.3146 11.9511 19.8499C11.9664 19.8194 11.9511 19.7889 11.9206 19.7813C11.4863 19.6137 11.0749 19.4156 10.6711 19.187C10.6406 19.1717 10.6406 19.126 10.6635 19.1032C10.7473 19.0422 10.8311 18.9736 10.9149 18.9127C10.9301 18.8974 10.953 18.8974 10.9682 18.9051C13.5893 20.1013 16.416 20.1013 19.0065 18.9051C19.0218 18.8974 19.0446 18.8974 19.0599 18.9127C19.1437 18.9813 19.2275 19.0422 19.3113 19.1108C19.3418 19.1336 19.3418 19.1794 19.3037 19.1946C18.9075 19.4308 18.4884 19.6213 18.0541 19.7889C18.0237 19.7965 18.016 19.8346 18.0237 19.8575C18.2675 20.3223 18.5418 20.7642 18.8389 21.1832C18.8618 21.1908 18.8846 21.1985 18.9075 21.1908C20.218 20.787 21.5361 20.1775 22.9076 19.1717C22.9228 19.1641 22.9305 19.1489 22.9305 19.1336C23.2657 15.6821 22.3743 12.6878 20.5685 10.0286C20.5609 10.021 20.5533 10.0134 20.538 10.0134ZM12.3473 17.3126C11.5625 17.3126 10.9073 16.5888 10.9073 15.6974C10.9073 14.8059 11.5473 14.0821 12.3473 14.0821C13.155 14.0821 13.795 14.8135 13.7874 15.6974C13.7874 16.5888 13.1473 17.3126 12.3473 17.3126ZM17.6579 17.3126C16.8732 17.3126 16.2179 16.5888 16.2179 15.6974C16.2179 14.8059 16.8579 14.0821 17.6579 14.0821C18.4656 14.0821 19.1056 14.8135 19.098 15.6974C19.098 16.5888 18.4656 17.3126 17.6579 17.3126Z" fill="url(#paint0_linear_621_2)"/>
<rect x="30" width="2" height="30" fill="#F2EEFF" fill-opacity="0.1"/>
<path d="M48.512 10.6C49.096 10.6 49.612 10.712 50.06 10.936C50.508 11.152 50.88 11.456 51.176 11.848C51.48 12.232 51.708 12.68 51.86 13.192C52.012 13.696 52.088 14.232 52.088 14.8C52.088 15.576 51.952 16.284 51.68 16.924C51.408 17.556 51.008 18.06 50.48 18.436C49.952 18.812 49.296 19 48.512 19H45.584C45.416 19 45.272 18.944 45.152 18.832C45.032 18.712 44.972 18.564 44.972 18.388V11.212C44.972 11.036 45.032 10.892 45.152 10.78C45.272 10.66 45.416 10.6 45.584 10.6H48.512ZM48.392 17.848C48.96 17.848 49.42 17.708 49.772 17.428C50.124 17.148 50.38 16.78 50.54 16.324C50.708 15.86 50.792 15.352 50.792 14.8C50.792 14.392 50.744 14.008 50.648 13.648C50.56 13.28 50.416 12.956 50.216 12.676C50.024 12.388 49.776 12.164 49.472 12.004C49.176 11.836 48.816 11.752 48.392 11.752H46.124L46.232 11.644V17.968L46.16 17.848H48.392ZM54.5578 18.388C54.5578 18.564 54.5018 18.712 54.3898 18.832C54.2778 18.944 54.1338 19 53.9578 19C53.7898 19 53.6458 18.944 53.5258 18.832C53.4138 18.712 53.3578 18.564 53.3578 18.388V13.252C53.3578 13.076 53.4138 12.932 53.5258 12.82C53.6458 12.7 53.7898 12.64 53.9578 12.64C54.1338 12.64 54.2778 12.7 54.3898 12.82C54.5018 12.932 54.5578 13.076 54.5578 13.252V18.388ZM53.9458 11.848C53.7138 11.848 53.5458 11.808 53.4418 11.728C53.3378 11.64 53.2858 11.496 53.2858 11.296V11.104C53.2858 10.904 53.3418 10.764 53.4538 10.684C53.5658 10.604 53.7338 10.564 53.9578 10.564C54.1978 10.564 54.3698 10.608 54.4738 10.696C54.5778 10.776 54.6298 10.912 54.6298 11.104V11.296C54.6298 11.504 54.5738 11.648 54.4618 11.728C54.3578 11.808 54.1858 11.848 53.9458 11.848ZM55.8 18.016C55.728 17.904 55.696 17.776 55.704 17.632C55.712 17.48 55.796 17.352 55.956 17.248C56.068 17.176 56.184 17.148 56.304 17.164C56.432 17.172 56.552 17.232 56.664 17.344C56.888 17.592 57.136 17.788 57.408 17.932C57.688 18.076 58.024 18.148 58.416 18.148C58.576 18.14 58.74 18.116 58.908 18.076C59.076 18.028 59.22 17.948 59.34 17.836C59.46 17.716 59.52 17.544 59.52 17.32C59.52 17.12 59.456 16.96 59.328 16.84C59.2 16.72 59.032 16.624 58.824 16.552C58.616 16.472 58.392 16.4 58.152 16.336C57.896 16.264 57.636 16.184 57.372 16.096C57.116 16.008 56.884 15.896 56.676 15.76C56.468 15.616 56.296 15.432 56.16 15.208C56.032 14.984 55.968 14.708 55.968 14.38C55.968 14.004 56.072 13.68 56.28 13.408C56.496 13.136 56.772 12.924 57.108 12.772C57.452 12.62 57.824 12.544 58.224 12.544C58.456 12.544 58.7 12.576 58.956 12.64C59.212 12.696 59.46 12.788 59.7 12.916C59.94 13.044 60.148 13.212 60.324 13.42C60.404 13.524 60.448 13.648 60.456 13.792C60.472 13.936 60.408 14.064 60.264 14.176C60.168 14.256 60.052 14.292 59.916 14.284C59.78 14.276 59.668 14.232 59.58 14.152C59.428 13.96 59.232 13.812 58.992 13.708C58.752 13.596 58.48 13.54 58.176 13.54C58.024 13.54 57.864 13.564 57.696 13.612C57.536 13.652 57.4 13.728 57.288 13.84C57.176 13.952 57.12 14.116 57.12 14.332C57.12 14.532 57.184 14.692 57.312 14.812C57.448 14.932 57.624 15.032 57.84 15.112C58.056 15.192 58.292 15.264 58.548 15.328C58.796 15.392 59.04 15.468 59.28 15.556C59.528 15.644 59.748 15.76 59.94 15.904C60.14 16.04 60.3 16.22 60.42 16.444C60.548 16.66 60.612 16.936 60.612 17.272C60.612 17.664 60.496 18 60.264 18.28C60.04 18.552 59.752 18.76 59.4 18.904C59.056 19.048 58.692 19.12 58.308 19.12C57.852 19.12 57.396 19.04 56.94 18.88C56.492 18.712 56.112 18.424 55.8 18.016ZM64.6985 12.544C65.1305 12.544 65.5145 12.592 65.8505 12.688C66.1865 12.776 66.4465 12.904 66.6305 13.072C66.8225 13.232 66.9185 13.42 66.9185 13.636C66.9185 13.772 66.8785 13.9 66.7985 14.02C66.7185 14.132 66.5985 14.188 66.4385 14.188C66.3265 14.188 66.2305 14.168 66.1505 14.128C66.0785 14.088 66.0105 14.04 65.9465 13.984C65.8825 13.928 65.8025 13.872 65.7065 13.816C65.6185 13.768 65.4865 13.728 65.3105 13.696C65.1425 13.664 64.9905 13.648 64.8545 13.648C64.4305 13.648 64.0625 13.744 63.7505 13.936C63.4465 14.128 63.2065 14.388 63.0305 14.716C62.8625 15.044 62.7785 15.416 62.7785 15.832C62.7785 16.248 62.8625 16.62 63.0305 16.948C63.2065 17.276 63.4425 17.536 63.7385 17.728C64.0425 17.92 64.3945 18.016 64.7945 18.016C65.0345 18.016 65.2305 18 65.3825 17.968C65.5345 17.928 65.6665 17.88 65.7785 17.824C65.8985 17.752 65.9985 17.68 66.0785 17.608C66.1665 17.528 66.2865 17.488 66.4385 17.488C66.6145 17.488 66.7465 17.544 66.8345 17.656C66.9305 17.76 66.9785 17.892 66.9785 18.052C66.9785 18.228 66.8705 18.4 66.6545 18.568C66.4465 18.728 66.1665 18.86 65.8145 18.964C65.4625 19.068 65.0745 19.12 64.6505 19.12C64.0265 19.12 63.4825 18.976 63.0185 18.688C62.5625 18.4 62.2065 18.008 61.9505 17.512C61.7025 17.016 61.5785 16.456 61.5785 15.832C61.5785 15.2 61.7105 14.64 61.9745 14.152C62.2385 13.656 62.6065 13.264 63.0785 12.976C63.5505 12.688 64.0905 12.544 64.6985 12.544ZM74.1732 15.844C74.1732 16.484 74.0332 17.052 73.7532 17.548C73.4732 18.036 73.0932 18.42 72.6132 18.7C72.1332 18.98 71.5932 19.12 70.9932 19.12C70.3932 19.12 69.8532 18.98 69.3732 18.7C68.8932 18.42 68.5092 18.036 68.2212 17.548C67.9412 17.052 67.8012 16.484 67.8012 15.844C67.8012 15.196 67.9412 14.628 68.2212 14.14C68.5092 13.644 68.8932 13.256 69.3732 12.976C69.8532 12.688 70.3932 12.544 70.9932 12.544C71.5932 12.544 72.1332 12.688 72.6132 12.976C73.0932 13.256 73.4732 13.644 73.7532 14.14C74.0332 14.628 74.1732 15.196 74.1732 15.844ZM72.9732 15.844C72.9732 15.404 72.8852 15.024 72.7092 14.704C72.5332 14.376 72.2932 14.12 71.9892 13.936C71.6932 13.744 71.3612 13.648 70.9932 13.648C70.6252 13.648 70.2892 13.744 69.9852 13.936C69.6812 14.12 69.4412 14.376 69.2652 14.704C69.0892 15.024 69.0012 15.404 69.0012 15.844C69.0012 16.268 69.0892 16.644 69.2652 16.972C69.4412 17.3 69.6812 17.556 69.9852 17.74C70.2892 17.924 70.6252 18.016 70.9932 18.016C71.3612 18.016 71.6932 17.924 71.9892 17.74C72.2932 17.556 72.5332 17.3 72.7092 16.972C72.8852 16.644 72.9732 16.268 72.9732 15.844ZM76.1314 19C75.9554 19 75.8114 18.944 75.6994 18.832C75.5874 18.712 75.5314 18.564 75.5314 18.388V13.3C75.5314 13.124 75.5874 12.98 75.6994 12.868C75.8114 12.748 75.9554 12.688 76.1314 12.688C76.2994 12.688 76.4394 12.748 76.5514 12.868C76.6714 12.98 76.7314 13.124 76.7314 13.3V14.644L76.6114 14.128C76.6754 13.904 76.7714 13.696 76.8994 13.504C77.0354 13.312 77.1954 13.144 77.3794 13C77.5634 12.856 77.7674 12.744 77.9914 12.664C78.2234 12.584 78.4634 12.544 78.7114 12.544C78.9194 12.544 79.0994 12.6 79.2514 12.712C79.4034 12.824 79.4794 12.964 79.4794 13.132C79.4794 13.348 79.4234 13.508 79.3114 13.612C79.1994 13.708 79.0754 13.756 78.9394 13.756C78.8194 13.756 78.7034 13.732 78.5914 13.684C78.4794 13.628 78.3474 13.6 78.1954 13.6C78.0274 13.6 77.8554 13.644 77.6794 13.732C77.5034 13.82 77.3434 13.952 77.1994 14.128C77.0554 14.296 76.9394 14.496 76.8514 14.728C76.7714 14.96 76.7314 15.22 76.7314 15.508V18.388C76.7314 18.564 76.6714 18.712 76.5514 18.832C76.4394 18.944 76.2994 19 76.1314 19ZM85.4495 10.12C85.6255 10.12 85.7695 10.176 85.8815 10.288C85.9935 10.4 86.0495 10.548 86.0495 10.732V18.388C86.0495 18.564 85.9935 18.712 85.8815 18.832C85.7695 18.944 85.6255 19 85.4495 19C85.2815 19 85.1375 18.944 85.0175 18.832C84.9055 18.712 84.8495 18.564 84.8495 18.388V17.524L85.1015 17.536C85.1015 17.68 85.0415 17.844 84.9215 18.028C84.8095 18.204 84.6535 18.376 84.4535 18.544C84.2535 18.712 84.0175 18.852 83.7455 18.964C83.4735 19.068 83.1815 19.12 82.8695 19.12C82.3175 19.12 81.8215 18.98 81.3815 18.7C80.9415 18.412 80.5935 18.024 80.3375 17.536C80.0815 17.04 79.9535 16.472 79.9535 15.832C79.9535 15.192 80.0815 14.628 80.3375 14.14C80.5935 13.644 80.9375 13.256 81.3695 12.976C81.8095 12.688 82.2975 12.544 82.8335 12.544C83.1695 12.544 83.4815 12.6 83.7695 12.712C84.0655 12.824 84.3215 12.968 84.5375 13.144C84.7535 13.32 84.9215 13.508 85.0415 13.708C85.1615 13.9 85.2215 14.084 85.2215 14.26L84.8495 14.296V10.732C84.8495 10.556 84.9055 10.412 85.0175 10.3C85.1375 10.18 85.2815 10.12 85.4495 10.12ZM83.0015 18.016C83.3855 18.016 83.7175 17.92 83.9975 17.728C84.2855 17.536 84.5095 17.276 84.6695 16.948C84.8295 16.62 84.9095 16.248 84.9095 15.832C84.9095 15.416 84.8295 15.044 84.6695 14.716C84.5095 14.388 84.2855 14.128 83.9975 13.936C83.7095 13.744 83.3775 13.648 83.0015 13.648C82.6335 13.648 82.3055 13.744 82.0175 13.936C81.7375 14.128 81.5135 14.388 81.3455 14.716C81.1855 15.044 81.1055 15.416 81.1055 15.832C81.1055 16.248 81.1855 16.62 81.3455 16.948C81.5135 17.276 81.7375 17.536 82.0175 17.728C82.3055 17.92 82.6335 18.016 83.0015 18.016Z" fill="#F2EEFF"/>
<defs>
<linearGradient id="paint0_linear_621_2" x1="7" y1="21.194" x2="25.019" y2="14.2061" gradientUnits="userSpaceOnUse">
<stop stop-color="#FFD1A7"/>
<stop offset="1" stop-color="#FF5A8B"/>
</linearGradient>
</defs>
</svg>
