<svg width="62" height="20" viewBox="0 0 62 20" fill="none" xmlns="http://www.w3.org/2000/svg">
<rect width="62" height="20" rx="4" fill="#161316"/>
<g clip-path="url(#clip0_265_35)">
<path d="M4.3165 4.276V15.7251H5.14037V16.0007H4V4.00075H5.14037V4.27637L4.3165 4.276ZM7.83812 7.90488V8.485H7.8535C7.99761 8.27297 8.18869 8.09703 8.41188 7.97088C8.629 7.84975 8.881 7.78938 9.16188 7.78938C9.4315 7.78938 9.67937 7.84225 9.9025 7.94575C10.1271 8.05113 10.2951 8.23675 10.4121 8.50038C10.5393 8.31288 10.7133 8.14675 10.9296 8.00425C11.1468 7.86175 11.4047 7.78938 11.7032 7.78938C11.9158 7.78723 12.1276 7.81551 12.3321 7.87338C12.5275 7.92775 12.6918 8.01588 12.8301 8.137C12.967 8.26038 13.0742 8.41863 13.1526 8.614C13.2287 8.809 13.2678 9.04563 13.2678 9.32313V12.1862H12.0944V9.76075C12.0947 9.62504 12.0887 9.4894 12.0764 9.35425C12.0692 9.2393 12.0387 9.12702 11.9868 9.02425C11.9378 8.92978 11.8615 8.85228 11.7678 8.80188C11.6721 8.74488 11.5394 8.71788 11.3751 8.71788C11.209 8.71788 11.0763 8.749 10.9746 8.81125C10.875 8.87329 10.7925 8.95928 10.7346 9.06138C10.6745 9.16892 10.6353 9.28687 10.6191 9.409C10.6002 9.53918 10.5898 9.67046 10.588 9.802V12.1866H9.41388V9.78625C9.41388 9.65913 9.412 9.53425 9.4045 9.41125C9.40109 9.29335 9.37657 9.17701 9.33212 9.06775C9.29298 8.96312 9.22016 8.87447 9.12512 8.81575C9.0295 8.75313 8.88663 8.72013 8.69913 8.72013C8.6425 8.72013 8.56862 8.73175 8.47862 8.75725C8.38862 8.78238 8.299 8.82925 8.215 8.89788C8.11998 8.97976 8.04451 9.08188 7.99413 9.19675C7.93375 9.32538 7.9045 9.49525 7.9045 9.70638V12.1889H6.73038V7.906L7.83812 7.90488ZM15.6835 15.7247V4.27563H14.8596V4H16V16H14.8596V15.7244L15.6835 15.7247Z" fill="black"/>
<path d="M4.3165 4.276V15.7251H5.14037V16.0007H4V4.00075H5.14037V4.27637L4.3165 4.276ZM7.83812 7.90488V8.485H7.8535C7.99761 8.27297 8.18869 8.09703 8.41188 7.97088C8.629 7.84975 8.881 7.78938 9.16188 7.78938C9.4315 7.78938 9.67937 7.84225 9.9025 7.94575C10.1271 8.05113 10.2951 8.23675 10.4121 8.50038C10.5393 8.31288 10.7133 8.14675 10.9296 8.00425C11.1468 7.86175 11.4047 7.78938 11.7032 7.78938C11.9158 7.78723 12.1276 7.81551 12.3321 7.87338C12.5275 7.92775 12.6918 8.01588 12.8301 8.137C12.967 8.26038 13.0742 8.41863 13.1526 8.614C13.2287 8.809 13.2678 9.04563 13.2678 9.32313V12.1862H12.0944V9.76075C12.0947 9.62504 12.0887 9.4894 12.0764 9.35425C12.0692 9.2393 12.0387 9.12702 11.9868 9.02425C11.9378 8.92978 11.8615 8.85228 11.7678 8.80188C11.6721 8.74488 11.5394 8.71788 11.3751 8.71788C11.209 8.71788 11.0763 8.749 10.9746 8.81125C10.875 8.87329 10.7925 8.95928 10.7346 9.06138C10.6745 9.16892 10.6353 9.28687 10.6191 9.409C10.6002 9.53918 10.5898 9.67046 10.588 9.802V12.1866H9.41388V9.78625C9.41388 9.65913 9.412 9.53425 9.4045 9.41125C9.40109 9.29335 9.37657 9.17701 9.33212 9.06775C9.29298 8.96312 9.22016 8.87447 9.12512 8.81575C9.0295 8.75313 8.88663 8.72013 8.69913 8.72013C8.6425 8.72013 8.56862 8.73175 8.47862 8.75725C8.38862 8.78238 8.299 8.82925 8.215 8.89788C8.11998 8.97976 8.04451 9.08188 7.99413 9.19675C7.93375 9.32538 7.9045 9.49525 7.9045 9.70638V12.1889H6.73038V7.906L7.83812 7.90488ZM15.6835 15.7247V4.27563H14.8596V4H16V16H14.8596V15.7244L15.6835 15.7247Z" fill="url(#paint0_linear_265_35)"/>
</g>
<rect x="20" width="2" height="20" fill="#F2EEFF" fill-opacity="0.1"/>
<path d="M31.064 7.392C31.128 7.392 31.1947 7.408 31.264 7.44C31.3333 7.472 31.3867 7.51733 31.424 7.576L33.456 10.672L33.112 10.656L35.184 7.576C35.2693 7.45333 35.3787 7.392 35.512 7.392C35.6187 7.392 35.712 7.432 35.792 7.512C35.8773 7.58667 35.92 7.68267 35.92 7.8V12.592C35.92 12.7093 35.8827 12.808 35.808 12.888C35.7333 12.9627 35.6347 13 35.512 13C35.384 13 35.28 12.9627 35.2 12.888C35.1253 12.808 35.088 12.7093 35.088 12.592V8.536L35.344 8.592L33.584 11.272C33.5467 11.32 33.4987 11.3627 33.44 11.4C33.3813 11.432 33.32 11.4453 33.256 11.44C33.1973 11.4453 33.136 11.432 33.072 11.4C33.0133 11.3627 32.9653 11.32 32.928 11.272L31.232 8.632L31.424 8.312V12.592C31.424 12.7093 31.3867 12.808 31.312 12.888C31.2427 12.9627 31.1493 13 31.032 13C30.92 13 30.8267 12.9627 30.752 12.888C30.6827 12.808 30.648 12.7093 30.648 12.592V7.8C30.648 7.688 30.688 7.592 30.768 7.512C30.8533 7.432 30.952 7.392 31.064 7.392ZM40.5861 8.728C40.7035 8.728 40.7995 8.768 40.8741 8.848C40.9488 8.92267 40.9861 9.01867 40.9861 9.136V12.592C40.9861 12.7093 40.9488 12.808 40.8741 12.888C40.7995 12.9627 40.7035 13 40.5861 13C40.4741 13 40.3781 12.9627 40.2981 12.888C40.2235 12.808 40.1861 12.7093 40.1861 12.592V12.016L40.3541 12.04C40.3541 12.136 40.3141 12.2427 40.2341 12.36C40.1595 12.4773 40.0555 12.592 39.9221 12.704C39.7888 12.8107 39.6315 12.9013 39.4501 12.976C39.2688 13.0453 39.0741 13.08 38.8661 13.08C38.4981 13.08 38.1675 12.9867 37.8741 12.8C37.5808 12.608 37.3488 12.3467 37.1781 12.016C37.0075 11.6853 36.9221 11.3093 36.9221 10.888C36.9221 10.456 37.0075 10.0773 37.1781 9.752C37.3488 9.42133 37.5781 9.16267 37.8661 8.976C38.1595 8.78933 38.4848 8.696 38.8421 8.696C39.0715 8.696 39.2821 8.73333 39.4741 8.808C39.6715 8.88267 39.8421 8.97867 39.9861 9.096C40.1301 9.21333 40.2395 9.33867 40.3141 9.472C40.3941 9.6 40.4341 9.72267 40.4341 9.84L40.1861 9.864V9.136C40.1861 9.024 40.2235 8.928 40.2981 8.848C40.3781 8.768 40.4741 8.728 40.5861 8.728ZM38.9541 12.344C39.2048 12.344 39.4261 12.28 39.6181 12.152C39.8101 12.024 39.9595 11.8507 40.0661 11.632C40.1728 11.408 40.2261 11.16 40.2261 10.888C40.2261 10.6107 40.1728 10.3627 40.0661 10.144C39.9595 9.92533 39.8101 9.752 39.6181 9.624C39.4261 9.496 39.2048 9.432 38.9541 9.432C38.7088 9.432 38.4901 9.496 38.2981 9.624C38.1115 9.752 37.9621 9.92533 37.8501 10.144C37.7435 10.3627 37.6901 10.6107 37.6901 10.888C37.6901 11.16 37.7435 11.408 37.8501 11.632C37.9621 11.8507 38.1115 12.024 38.2981 12.152C38.4901 12.28 38.7088 12.344 38.9541 12.344ZM42.0509 8.84H43.9309C44.0375 8.84 44.1255 8.87733 44.1949 8.952C44.2695 9.02133 44.3069 9.10933 44.3069 9.216C44.3069 9.31733 44.2695 9.40267 44.1949 9.472C44.1255 9.54133 44.0375 9.576 43.9309 9.576H42.0509C41.9442 9.576 41.8535 9.54133 41.7789 9.472C41.7095 9.39733 41.6749 9.30933 41.6749 9.208C41.6749 9.10133 41.7095 9.01333 41.7789 8.944C41.8535 8.87467 41.9442 8.84 42.0509 8.84ZM42.8909 7.8C43.0082 7.8 43.1042 7.84 43.1789 7.92C43.2535 7.99467 43.2909 8.09067 43.2909 8.208V11.92C43.2909 12.016 43.3069 12.0933 43.3389 12.152C43.3709 12.2107 43.4135 12.2507 43.4669 12.272C43.5255 12.2933 43.5842 12.304 43.6429 12.304C43.7015 12.304 43.7522 12.2933 43.7949 12.272C43.8429 12.2507 43.8989 12.24 43.9629 12.24C44.0269 12.24 44.0855 12.2693 44.1389 12.328C44.1922 12.3867 44.2189 12.4667 44.2189 12.568C44.2189 12.696 44.1495 12.8 44.0109 12.88C43.8722 12.96 43.7229 13 43.5629 13C43.4722 13 43.3655 12.992 43.2429 12.976C43.1202 12.96 43.0002 12.92 42.8829 12.856C42.7709 12.792 42.6775 12.6907 42.6029 12.552C42.5282 12.408 42.4909 12.208 42.4909 11.952V8.208C42.4909 8.09067 42.5282 7.99467 42.6029 7.92C42.6829 7.84 42.7789 7.8 42.8909 7.8ZM45.5928 13C45.4755 13 45.3795 12.9627 45.3048 12.888C45.2301 12.808 45.1928 12.7093 45.1928 12.592V9.2C45.1928 9.08267 45.2301 8.98667 45.3048 8.912C45.3795 8.832 45.4755 8.792 45.5928 8.792C45.7048 8.792 45.7981 8.832 45.8728 8.912C45.9528 8.98667 45.9928 9.08267 45.9928 9.2V10.096L45.9128 9.752C45.9555 9.60267 46.0195 9.464 46.1048 9.336C46.1955 9.208 46.3021 9.096 46.4248 9C46.5475 8.904 46.6835 8.82933 46.8328 8.776C46.9875 8.72267 47.1475 8.696 47.3128 8.696C47.4515 8.696 47.5715 8.73333 47.6728 8.808C47.7741 8.88267 47.8248 8.976 47.8248 9.088C47.8248 9.232 47.7875 9.33867 47.7128 9.408C47.6381 9.472 47.5555 9.504 47.4648 9.504C47.3848 9.504 47.3075 9.488 47.2328 9.456C47.1581 9.41867 47.0701 9.4 46.9688 9.4C46.8568 9.4 46.7421 9.42933 46.6248 9.488C46.5075 9.54667 46.4008 9.63467 46.3048 9.752C46.2088 9.864 46.1315 9.99733 46.0728 10.152C46.0195 10.3067 45.9928 10.48 45.9928 10.672V12.592C45.9928 12.7093 45.9528 12.808 45.8728 12.888C45.7981 12.9627 45.7048 13 45.5928 13ZM49.2886 12.592C49.2886 12.7093 49.2512 12.808 49.1766 12.888C49.1019 12.9627 49.0059 13 48.8886 13C48.7766 13 48.6806 12.9627 48.6006 12.888C48.5259 12.808 48.4886 12.7093 48.4886 12.592V9.168C48.4886 9.05067 48.5259 8.95467 48.6006 8.88C48.6806 8.8 48.7766 8.76 48.8886 8.76C49.0059 8.76 49.1019 8.8 49.1766 8.88C49.2512 8.95467 49.2886 9.05067 49.2886 9.168V12.592ZM48.8806 8.232C48.7259 8.232 48.6139 8.20533 48.5446 8.152C48.4752 8.09333 48.4406 7.99733 48.4406 7.864V7.736C48.4406 7.60267 48.4779 7.50933 48.5526 7.456C48.6272 7.40267 48.7392 7.376 48.8886 7.376C49.0486 7.376 49.1632 7.40533 49.2326 7.464C49.3019 7.51733 49.3366 7.608 49.3366 7.736V7.864C49.3366 8.00267 49.2992 8.09867 49.2246 8.152C49.1552 8.20533 49.0406 8.232 48.8806 8.232ZM50.3807 8.768C50.514 8.768 50.6234 8.824 50.7087 8.936L53.4367 12.376C53.4954 12.4453 53.5247 12.5253 53.5247 12.616C53.5247 12.7227 53.482 12.816 53.3967 12.896C53.3114 12.976 53.218 13.016 53.1167 13.016C52.9887 13.016 52.8794 12.96 52.7887 12.848L50.0607 9.408C50.002 9.33867 49.9727 9.25867 49.9727 9.168C49.9727 9.056 50.0127 8.96267 50.0927 8.888C50.178 8.808 50.274 8.768 50.3807 8.768ZM50.3887 13.016C50.298 13.016 50.21 12.9813 50.1247 12.912C50.0394 12.8427 49.9967 12.7573 49.9967 12.656C49.9967 12.5653 50.0287 12.4827 50.0927 12.408L51.3647 10.832L51.7727 11.488L50.7087 12.848C50.6234 12.96 50.5167 13.016 50.3887 13.016ZM53.1087 8.768C53.2207 8.768 53.3114 8.80533 53.3807 8.88C53.4554 8.94933 53.4927 9.032 53.4927 9.128C53.4927 9.17067 53.4847 9.216 53.4687 9.264C53.458 9.30667 53.434 9.34667 53.3967 9.384L52.1407 10.96L51.7247 10.368L52.7887 8.952C52.8794 8.82933 52.986 8.768 53.1087 8.768Z" fill="#F2EEFF"/>
<defs>
<linearGradient id="paint0_linear_265_35" x1="4" y1="16.0008" x2="18.2979" y2="11.7752" gradientUnits="userSpaceOnUse">
<stop stop-color="#FFD1A7"/>
<stop offset="1" stop-color="#FF5A8B"/>
</linearGradient>
<clipPath id="clip0_265_35">
<rect width="12" height="12" fill="white" transform="translate(4 4)"/>
</clipPath>
</defs>
</svg>
