<svg width="66" height="20" viewBox="0 0 66 20" fill="none" xmlns="http://www.w3.org/2000/svg">
<rect width="66" height="20" rx="4" fill="#161316"/>
<path d="M8.50005 9.00038C8.50523 8.60417 8.66493 8.22564 8.94512 7.94545C9.22531 7.66526 9.60384 7.50556 10.0001 7.50038C10.3963 7.50556 10.7748 7.66526 11.055 7.94545C11.3352 8.22564 11.4949 8.60417 11.5001 9.00038C11.4949 9.3966 11.3352 9.77513 11.055 10.0553C10.7748 10.3355 10.3963 10.4952 10.0001 10.5004C9.60384 10.4952 9.22531 10.3355 8.94512 10.0553C8.66493 9.77513 8.50523 9.3966 8.50005 9.00038ZM10.0001 13.5004L12.0001 14.0004V12.4604C11.3969 12.8236 10.7041 13.0107 10.0001 13.0004C9.29604 13.0107 8.60321 12.8236 8.00005 12.4604V14.0004L10.0001 13.5004ZM10.0001 6.00038C9.60604 5.9932 9.21471 6.06667 8.85014 6.21628C8.48556 6.36589 8.15544 6.58849 7.88005 6.87038C7.59511 7.14607 7.36994 7.47743 7.21855 7.84387C7.06716 8.21031 6.99278 8.60397 7.00005 9.00038C6.99484 9.39428 7.07022 9.78509 7.22155 10.1488C7.37288 10.5125 7.59697 10.8414 7.88005 11.1154C8.15415 11.4 8.4837 11.6254 8.84834 11.7776C9.21298 11.9298 9.60495 12.0056 10.0001 12.0004C10.3952 12.0056 10.7871 11.9298 11.1518 11.7776C11.5164 11.6254 11.846 11.4 12.1201 11.1154C12.4031 10.8414 12.6272 10.5125 12.7786 10.1488C12.9299 9.78509 13.0053 9.39428 13.0001 9.00038C13.0073 8.60397 12.933 8.21031 12.7816 7.84387C12.6302 7.47743 12.405 7.14607 12.1201 6.87038C11.8447 6.58849 11.5145 6.36589 11.15 6.21628C10.7854 6.06667 10.3941 5.9932 10.0001 6.00038V6.00038ZM14.0001 9.00038C13.9894 9.48033 13.8929 9.95448 13.7151 10.4004C13.5548 10.8541 13.3125 11.2744 13.0001 11.6404V15.5004L10.0001 14.5004L7.00005 15.5004V11.6404C6.3529 10.9136 5.9968 9.97352 6.00005 9.00038C5.99124 8.47568 6.09007 7.95473 6.29044 7.46971C6.49082 6.98469 6.78848 6.54588 7.16505 6.18038C7.5319 5.80043 7.97273 5.4997 8.46033 5.29675C8.94793 5.0938 9.47196 4.99293 10.0001 5.00038C10.5282 4.99293 11.0522 5.0938 11.5398 5.29675C12.0274 5.4997 12.4682 5.80043 12.8351 6.18038C13.2116 6.54588 13.5093 6.98469 13.7097 7.46971C13.91 7.95473 14.0089 8.47568 14.0001 9.00038V9.00038Z" fill="black"/>
<path d="M8.50005 9.00038C8.50523 8.60417 8.66493 8.22564 8.94512 7.94545C9.22531 7.66526 9.60384 7.50556 10.0001 7.50038C10.3963 7.50556 10.7748 7.66526 11.055 7.94545C11.3352 8.22564 11.4949 8.60417 11.5001 9.00038C11.4949 9.3966 11.3352 9.77513 11.055 10.0553C10.7748 10.3355 10.3963 10.4952 10.0001 10.5004C9.60384 10.4952 9.22531 10.3355 8.94512 10.0553C8.66493 9.77513 8.50523 9.3966 8.50005 9.00038ZM10.0001 13.5004L12.0001 14.0004V12.4604C11.3969 12.8236 10.7041 13.0107 10.0001 13.0004C9.29604 13.0107 8.60321 12.8236 8.00005 12.4604V14.0004L10.0001 13.5004ZM10.0001 6.00038C9.60604 5.9932 9.21471 6.06667 8.85014 6.21628C8.48556 6.36589 8.15544 6.58849 7.88005 6.87038C7.59511 7.14607 7.36994 7.47743 7.21855 7.84387C7.06716 8.21031 6.99278 8.60397 7.00005 9.00038C6.99484 9.39428 7.07022 9.78509 7.22155 10.1488C7.37288 10.5125 7.59697 10.8414 7.88005 11.1154C8.15415 11.4 8.4837 11.6254 8.84834 11.7776C9.21298 11.9298 9.60495 12.0056 10.0001 12.0004C10.3952 12.0056 10.7871 11.9298 11.1518 11.7776C11.5164 11.6254 11.846 11.4 12.1201 11.1154C12.4031 10.8414 12.6272 10.5125 12.7786 10.1488C12.9299 9.78509 13.0053 9.39428 13.0001 9.00038C13.0073 8.60397 12.933 8.21031 12.7816 7.84387C12.6302 7.47743 12.405 7.14607 12.1201 6.87038C11.8447 6.58849 11.5145 6.36589 11.15 6.21628C10.7854 6.06667 10.3941 5.9932 10.0001 6.00038V6.00038ZM14.0001 9.00038C13.9894 9.48033 13.8929 9.95448 13.7151 10.4004C13.5548 10.8541 13.3125 11.2744 13.0001 11.6404V15.5004L10.0001 14.5004L7.00005 15.5004V11.6404C6.3529 10.9136 5.9968 9.97352 6.00005 9.00038C5.99124 8.47568 6.09007 7.95473 6.29044 7.46971C6.49082 6.98469 6.78848 6.54588 7.16505 6.18038C7.5319 5.80043 7.97273 5.4997 8.46033 5.29675C8.94793 5.0938 9.47196 4.99293 10.0001 5.00038C10.5282 4.99293 11.0522 5.0938 11.5398 5.29675C12.0274 5.4997 12.4682 5.80043 12.8351 6.18038C13.2116 6.54588 13.5093 6.98469 13.7097 7.46971C13.91 7.95473 14.0089 8.47568 14.0001 9.00038V9.00038Z" fill="url(#paint0_linear_265_43)"/>
<rect x="20" width="2" height="20" fill="#F2EEFF" fill-opacity="0.1"/>
<path d="M33.248 13.08C32.8427 13.08 32.464 13.008 32.112 12.864C31.76 12.7147 31.4507 12.5093 31.184 12.248C30.9227 11.9813 30.7173 11.6747 30.568 11.328C30.4187 10.9813 30.344 10.6053 30.344 10.2C30.344 9.79467 30.4187 9.41867 30.568 9.072C30.7173 8.72533 30.9227 8.42133 31.184 8.16C31.4507 7.89333 31.76 7.688 32.112 7.544C32.464 7.39467 32.8427 7.32 33.248 7.32C33.5093 7.32 33.7627 7.34933 34.008 7.408C34.2533 7.46667 34.4747 7.552 34.672 7.664C34.7413 7.70133 34.792 7.752 34.824 7.816C34.856 7.87467 34.872 7.93333 34.872 7.992C34.872 8.104 34.8347 8.20267 34.76 8.288C34.6907 8.368 34.6027 8.408 34.496 8.408C34.4587 8.408 34.4187 8.40267 34.376 8.392C34.3387 8.38133 34.304 8.368 34.272 8.352C34.1227 8.27733 33.9627 8.22133 33.792 8.184C33.6213 8.14133 33.44 8.12 33.248 8.12C32.864 8.12 32.5173 8.21333 32.208 8.4C31.8987 8.58133 31.6533 8.82933 31.472 9.144C31.296 9.45867 31.208 9.81067 31.208 10.2C31.208 10.584 31.296 10.936 31.472 11.256C31.6533 11.5707 31.8987 11.8213 32.208 12.008C32.5173 12.1893 32.864 12.28 33.248 12.28C33.4347 12.28 33.632 12.2587 33.84 12.216C34.048 12.168 34.224 12.1067 34.368 12.032L34.304 12.248V10.728L34.432 10.84H33.384C33.2667 10.84 33.168 10.8027 33.088 10.728C33.0133 10.6533 32.976 10.5573 32.976 10.44C32.976 10.3227 33.0133 10.2267 33.088 10.152C33.168 10.0773 33.2667 10.04 33.384 10.04H34.768C34.88 10.04 34.9733 10.08 35.048 10.16C35.128 10.2347 35.168 10.3307 35.168 10.448V12.224C35.168 12.3093 35.1467 12.3813 35.104 12.44C35.0613 12.4987 35.0133 12.5467 34.96 12.584C34.72 12.7333 34.4533 12.8533 34.16 12.944C33.872 13.0347 33.568 13.08 33.248 13.08ZM38.4743 7.4C38.757 7.4 39.0183 7.47733 39.2583 7.632C39.4983 7.78133 39.6903 7.98667 39.8343 8.248C39.9783 8.50933 40.0503 8.80267 40.0503 9.128C40.0503 9.45333 39.9783 9.74933 39.8343 10.016C39.6903 10.2773 39.4983 10.488 39.2583 10.648C39.0183 10.8027 38.757 10.88 38.4743 10.88H36.9303L36.9943 10.752V12.592C36.9943 12.7093 36.957 12.808 36.8823 12.888C36.813 12.9627 36.7196 13 36.6023 13C36.4903 13 36.397 12.9627 36.3223 12.888C36.253 12.808 36.2183 12.7093 36.2183 12.592V7.808C36.2183 7.69067 36.2583 7.59467 36.3383 7.52C36.4183 7.44 36.5143 7.4 36.6263 7.4H38.4743ZM38.4743 10.112C38.613 10.112 38.7383 10.0667 38.8503 9.976C38.9676 9.88533 39.061 9.76533 39.1303 9.616C39.205 9.46667 39.2423 9.304 39.2423 9.128C39.2423 8.952 39.205 8.792 39.1303 8.648C39.061 8.504 38.9676 8.38933 38.8503 8.304C38.7383 8.21333 38.613 8.168 38.4743 8.168H36.9143L36.9943 8.048V10.216L36.9223 10.112H38.4743ZM44.119 12.216C44.231 12.216 44.3243 12.2533 44.399 12.328C44.479 12.4027 44.519 12.496 44.519 12.608C44.519 12.72 44.479 12.8133 44.399 12.888C44.3243 12.9627 44.231 13 44.119 13H41.431C41.3137 13 41.215 12.9627 41.135 12.888C41.0603 12.808 41.023 12.7093 41.023 12.592V7.808C41.023 7.69067 41.063 7.59467 41.143 7.52C41.223 7.44 41.327 7.4 41.455 7.4C41.5617 7.4 41.655 7.44 41.735 7.52C41.8203 7.59467 41.863 7.69067 41.863 7.808V12.352L41.695 12.216H44.119ZM45.6131 10.928C45.5011 10.928 45.4051 10.8907 45.3251 10.816C45.2504 10.736 45.2131 10.64 45.2131 10.528C45.2131 10.4107 45.2504 10.3173 45.3251 10.248C45.4051 10.1733 45.5011 10.136 45.6131 10.136H47.1171C47.2291 10.136 47.3251 10.176 47.4051 10.256C47.4851 10.3307 47.5251 10.4267 47.5251 10.544C47.5251 10.6507 47.4851 10.7413 47.4051 10.816C47.3251 10.8907 47.2291 10.928 47.1171 10.928H45.6131ZM52.6655 7.384C52.7775 7.384 52.8735 7.42133 52.9535 7.496C53.0335 7.57067 53.0735 7.66133 53.0735 7.768C53.0735 7.82667 53.0602 7.888 53.0335 7.952L51.0095 12.736C50.9668 12.8267 50.9082 12.8933 50.8335 12.936C50.7642 12.9787 50.6922 13 50.6175 13C50.5428 12.9947 50.4708 12.9707 50.4015 12.928C50.3375 12.8853 50.2868 12.824 50.2495 12.744L48.2255 7.952C48.2148 7.92533 48.2068 7.89867 48.2015 7.872C48.1962 7.84 48.1935 7.808 48.1935 7.776C48.1935 7.65333 48.2388 7.55733 48.3295 7.488C48.4202 7.41867 48.5082 7.384 48.5935 7.384C48.7642 7.384 48.8895 7.472 48.9695 7.648L50.8015 11.992H50.5695L52.2975 7.64C52.3722 7.46933 52.4948 7.384 52.6655 7.384ZM54.1601 11.976C54.2028 11.976 54.2481 11.984 54.2961 12C54.3441 12.0107 54.3975 12.0373 54.4561 12.08C54.5521 12.1653 54.6668 12.2373 54.8001 12.296C54.9388 12.3493 55.0961 12.376 55.2721 12.376C55.4695 12.376 55.6535 12.3307 55.8241 12.24C55.9948 12.144 56.1335 12.0107 56.2401 11.84C56.3468 11.6693 56.4001 11.4667 56.4001 11.232C56.4001 10.992 56.3495 10.7973 56.2481 10.648C56.1468 10.4933 56.0161 10.3787 55.8561 10.304C55.6961 10.224 55.5281 10.184 55.3521 10.184C55.2508 10.184 55.1655 10.1947 55.0961 10.216C55.0268 10.232 54.9601 10.2507 54.8961 10.272C54.8321 10.288 54.7628 10.296 54.6881 10.296C54.5868 10.296 54.5068 10.2613 54.4481 10.192C54.3895 10.1173 54.3601 10.0293 54.3601 9.928C54.3601 9.864 54.3735 9.808 54.4001 9.76C54.4268 9.712 54.4641 9.65867 54.5121 9.6L55.9921 8.016L56.1681 8.176H54.0481C53.9415 8.176 53.8508 8.14133 53.7761 8.072C53.7068 7.99733 53.6721 7.90667 53.6721 7.8C53.6721 7.69867 53.7068 7.61333 53.7761 7.544C53.8508 7.47467 53.9415 7.44 54.0481 7.44H56.5761C56.7148 7.44 56.8161 7.48 56.8801 7.56C56.9495 7.64 56.9841 7.73333 56.9841 7.84C56.9841 7.89867 56.9681 7.95467 56.9361 8.008C56.9095 8.06133 56.8748 8.112 56.8321 8.16L55.3441 9.76L55.1441 9.544C55.1868 9.52267 55.2588 9.50133 55.3601 9.48C55.4615 9.45867 55.5441 9.448 55.6081 9.448C55.9121 9.448 56.1841 9.52533 56.4241 9.68C56.6695 9.83467 56.8588 10.0427 56.9921 10.304C57.1308 10.56 57.2001 10.8507 57.2001 11.176C57.2001 11.5653 57.1121 11.904 56.9361 12.192C56.7601 12.4747 56.5148 12.6933 56.2001 12.848C55.8908 13.0027 55.5335 13.08 55.1281 13.08C54.9255 13.08 54.7228 13.0533 54.5201 13C54.3228 12.9413 54.1521 12.8587 54.0081 12.752C53.9175 12.6987 53.8561 12.6427 53.8241 12.584C53.7921 12.52 53.7761 12.4587 53.7761 12.4C53.7761 12.2987 53.8108 12.2027 53.8801 12.112C53.9548 12.0213 54.0481 11.976 54.1601 11.976Z" fill="#F2EEFF"/>
<defs>
<linearGradient id="paint0_linear_265_43" x1="5.99951" y1="15.5004" x2="15.865" y2="13.2786" gradientUnits="userSpaceOnUse">
<stop stop-color="#FFD1A7"/>
<stop offset="1" stop-color="#FF5A8B"/>
</linearGradient>
</defs>
</svg>
