<svg width="63" height="20" viewBox="0 0 63 20" fill="none" xmlns="http://www.w3.org/2000/svg">
<rect width="63" height="20" rx="4" fill="#161316"/>
<g clip-path="url(#clip0_265_26)">
<path d="M15.566 9.98821C15.566 10.2162 15.5081 10.4235 15.3921 10.6103C15.2761 10.797 15.1199 10.9395 14.9233 11.0377C14.9705 11.2186 14.9941 11.4072 14.9941 11.6038C14.9941 12.213 14.7848 12.7771 14.3662 13.296C13.9475 13.8149 13.3766 14.2246 12.6533 14.5254C11.93 14.8261 11.1439 14.9764 10.2948 14.9764C9.44575 14.9764 8.66057 14.8261 7.93927 14.5254C7.21796 14.2246 6.648 13.8149 6.22936 13.296C5.81073 12.7771 5.60142 12.213 5.60142 11.6038C5.60142 11.419 5.62303 11.2343 5.66627 11.0495C5.4658 10.9513 5.30464 10.8068 5.18278 10.6162C5.06093 10.4255 5 10.2162 5 9.98821C5 9.66588 5.11399 9.38974 5.34198 9.15979C5.56997 8.92983 5.84709 8.81486 6.17335 8.81486C6.50747 8.81486 6.79245 8.93868 7.0283 9.18632C7.88522 8.58884 8.89741 8.27044 10.0649 8.23113L10.7488 5.1592C10.7606 5.1081 10.7901 5.06682 10.8373 5.03538C10.8844 5.00393 10.9355 4.9941 10.9906 5.0059L13.1663 5.48349C13.237 5.33805 13.3432 5.22111 13.4847 5.13267C13.6262 5.04422 13.7814 5 13.9505 5C14.1942 5 14.4025 5.0855 14.5755 5.25649C14.7484 5.42748 14.8349 5.63483 14.8349 5.87854C14.8349 6.12225 14.7484 6.33058 14.5755 6.50354C14.4025 6.67649 14.1942 6.76297 13.9505 6.76297C13.7068 6.76297 13.4994 6.67748 13.3284 6.50649C13.1574 6.3355 13.0719 6.12814 13.0719 5.88443L11.1026 5.44811L10.4894 8.23113C11.6686 8.26651 12.6887 8.58097 13.5495 9.17453C13.7775 8.93475 14.0586 8.81486 14.3927 8.81486C14.7189 8.81486 14.9961 8.92983 15.2241 9.15979C15.452 9.38974 15.566 9.66588 15.566 9.98821ZM7.46462 11.1616C7.46462 11.4053 7.55012 11.6136 7.72111 11.7866C7.8921 11.9595 8.09945 12.046 8.34316 12.046C8.58687 12.046 8.7952 11.9595 8.96816 11.7866C9.14112 11.6136 9.22759 11.4053 9.22759 11.1616C9.22759 10.9178 9.14112 10.7105 8.96816 10.5395C8.7952 10.3685 8.58687 10.283 8.34316 10.283C8.10338 10.283 7.89701 10.3695 7.72406 10.5425C7.5511 10.7154 7.46462 10.9218 7.46462 11.1616ZM12.2406 13.2547C12.2838 13.2115 12.3054 13.1604 12.3054 13.1014C12.3054 13.0425 12.2838 12.9914 12.2406 12.9481C12.2013 12.9088 12.1521 12.8892 12.0932 12.8892C12.0342 12.8892 11.9831 12.9088 11.9399 12.9481C11.7787 13.1132 11.5409 13.2351 11.2264 13.3137C10.9119 13.3923 10.5975 13.4316 10.283 13.4316C9.96855 13.4316 9.65409 13.3923 9.33962 13.3137C9.02516 13.2351 8.78734 13.1132 8.62618 12.9481C8.58294 12.9088 8.53184 12.8892 8.47288 12.8892C8.41392 12.8892 8.36478 12.9088 8.32547 12.9481C8.28223 12.9874 8.26061 13.0375 8.26061 13.0985C8.26061 13.1594 8.28223 13.2115 8.32547 13.2547C8.4945 13.4237 8.7274 13.5574 9.02417 13.6557C9.32095 13.7539 9.56171 13.8119 9.74646 13.8296C9.93121 13.8473 10.1101 13.8561 10.283 13.8561C10.456 13.8561 10.6348 13.8473 10.8196 13.8296C11.0043 13.8119 11.2451 13.7539 11.5419 13.6557C11.8386 13.5574 12.0715 13.4237 12.2406 13.2547ZM12.2229 12.046C12.4666 12.046 12.6739 11.9595 12.8449 11.7866C13.0159 11.6136 13.1014 11.4053 13.1014 11.1616C13.1014 10.9218 13.0149 10.7154 12.842 10.5425C12.669 10.3695 12.4627 10.283 12.2229 10.283C11.9792 10.283 11.7708 10.3685 11.5979 10.5395C11.4249 10.7105 11.3384 10.9178 11.3384 11.1616C11.3384 11.4053 11.4249 11.6136 11.5979 11.7866C11.7708 11.9595 11.9792 12.046 12.2229 12.046Z" fill="black"/>
<path d="M15.566 9.98821C15.566 10.2162 15.5081 10.4235 15.3921 10.6103C15.2761 10.797 15.1199 10.9395 14.9233 11.0377C14.9705 11.2186 14.9941 11.4072 14.9941 11.6038C14.9941 12.213 14.7848 12.7771 14.3662 13.296C13.9475 13.8149 13.3766 14.2246 12.6533 14.5254C11.93 14.8261 11.1439 14.9764 10.2948 14.9764C9.44575 14.9764 8.66057 14.8261 7.93927 14.5254C7.21796 14.2246 6.648 13.8149 6.22936 13.296C5.81073 12.7771 5.60142 12.213 5.60142 11.6038C5.60142 11.419 5.62303 11.2343 5.66627 11.0495C5.4658 10.9513 5.30464 10.8068 5.18278 10.6162C5.06093 10.4255 5 10.2162 5 9.98821C5 9.66588 5.11399 9.38974 5.34198 9.15979C5.56997 8.92983 5.84709 8.81486 6.17335 8.81486C6.50747 8.81486 6.79245 8.93868 7.0283 9.18632C7.88522 8.58884 8.89741 8.27044 10.0649 8.23113L10.7488 5.1592C10.7606 5.1081 10.7901 5.06682 10.8373 5.03538C10.8844 5.00393 10.9355 4.9941 10.9906 5.0059L13.1663 5.48349C13.237 5.33805 13.3432 5.22111 13.4847 5.13267C13.6262 5.04422 13.7814 5 13.9505 5C14.1942 5 14.4025 5.0855 14.5755 5.25649C14.7484 5.42748 14.8349 5.63483 14.8349 5.87854C14.8349 6.12225 14.7484 6.33058 14.5755 6.50354C14.4025 6.67649 14.1942 6.76297 13.9505 6.76297C13.7068 6.76297 13.4994 6.67748 13.3284 6.50649C13.1574 6.3355 13.0719 6.12814 13.0719 5.88443L11.1026 5.44811L10.4894 8.23113C11.6686 8.26651 12.6887 8.58097 13.5495 9.17453C13.7775 8.93475 14.0586 8.81486 14.3927 8.81486C14.7189 8.81486 14.9961 8.92983 15.2241 9.15979C15.452 9.38974 15.566 9.66588 15.566 9.98821ZM7.46462 11.1616C7.46462 11.4053 7.55012 11.6136 7.72111 11.7866C7.8921 11.9595 8.09945 12.046 8.34316 12.046C8.58687 12.046 8.7952 11.9595 8.96816 11.7866C9.14112 11.6136 9.22759 11.4053 9.22759 11.1616C9.22759 10.9178 9.14112 10.7105 8.96816 10.5395C8.7952 10.3685 8.58687 10.283 8.34316 10.283C8.10338 10.283 7.89701 10.3695 7.72406 10.5425C7.5511 10.7154 7.46462 10.9218 7.46462 11.1616ZM12.2406 13.2547C12.2838 13.2115 12.3054 13.1604 12.3054 13.1014C12.3054 13.0425 12.2838 12.9914 12.2406 12.9481C12.2013 12.9088 12.1521 12.8892 12.0932 12.8892C12.0342 12.8892 11.9831 12.9088 11.9399 12.9481C11.7787 13.1132 11.5409 13.2351 11.2264 13.3137C10.9119 13.3923 10.5975 13.4316 10.283 13.4316C9.96855 13.4316 9.65409 13.3923 9.33962 13.3137C9.02516 13.2351 8.78734 13.1132 8.62618 12.9481C8.58294 12.9088 8.53184 12.8892 8.47288 12.8892C8.41392 12.8892 8.36478 12.9088 8.32547 12.9481C8.28223 12.9874 8.26061 13.0375 8.26061 13.0985C8.26061 13.1594 8.28223 13.2115 8.32547 13.2547C8.4945 13.4237 8.7274 13.5574 9.02417 13.6557C9.32095 13.7539 9.56171 13.8119 9.74646 13.8296C9.93121 13.8473 10.1101 13.8561 10.283 13.8561C10.456 13.8561 10.6348 13.8473 10.8196 13.8296C11.0043 13.8119 11.2451 13.7539 11.5419 13.6557C11.8386 13.5574 12.0715 13.4237 12.2406 13.2547ZM12.2229 12.046C12.4666 12.046 12.6739 11.9595 12.8449 11.7866C13.0159 11.6136 13.1014 11.4053 13.1014 11.1616C13.1014 10.9218 13.0149 10.7154 12.842 10.5425C12.669 10.3695 12.4627 10.283 12.2229 10.283C11.9792 10.283 11.7708 10.3685 11.5979 10.5395C11.4249 10.7105 11.3384 10.9178 11.3384 11.1616C11.3384 11.4053 11.4249 11.6136 11.5979 11.7866C11.7708 11.9595 11.9792 12.046 12.2229 12.046Z" fill="url(#paint0_linear_265_26)"/>
</g>
<rect x="20" width="2" height="20" fill="#F2EEFF" fill-opacity="0.1"/>
<path d="M31.128 13C31 13 30.888 12.9627 30.792 12.888C30.696 12.808 30.648 12.7093 30.648 12.592V7.808C30.648 7.69067 30.688 7.59467 30.768 7.52C30.848 7.44 30.944 7.4 31.056 7.4H33.312C33.6 7.4 33.864 7.472 34.104 7.616C34.344 7.75467 34.536 7.94933 34.68 8.2C34.8293 8.44533 34.904 8.728 34.904 9.048C34.904 9.26133 34.8613 9.46667 34.776 9.664C34.6907 9.856 34.576 10.0267 34.432 10.176C34.288 10.3253 34.1253 10.4373 33.944 10.512L33.856 10.36C34.0213 10.4187 34.1653 10.504 34.288 10.616C34.4107 10.7227 34.5067 10.8507 34.576 11C34.6507 11.144 34.6907 11.3093 34.696 11.496C34.712 11.6613 34.7253 11.8 34.736 11.912C34.752 12.0187 34.7733 12.1067 34.8 12.176C34.8267 12.2453 34.8747 12.2987 34.944 12.336C35.04 12.3893 35.0987 12.4693 35.12 12.576C35.1467 12.6827 35.1253 12.7787 35.056 12.864C35.008 12.928 34.9467 12.9707 34.872 12.992C34.8027 13.008 34.7307 13.0107 34.656 13C34.5813 12.984 34.5173 12.9627 34.464 12.936C34.3787 12.8827 34.2907 12.808 34.2 12.712C34.1147 12.6107 34.0453 12.472 33.992 12.296C33.9387 12.12 33.912 11.888 33.912 11.6C33.912 11.4667 33.8907 11.352 33.848 11.256C33.8053 11.16 33.7467 11.0827 33.672 11.024C33.5973 10.96 33.5093 10.9147 33.408 10.888C33.3067 10.856 33.1947 10.84 33.072 10.84H31.376L31.488 10.68V12.592C31.488 12.7093 31.456 12.808 31.392 12.888C31.328 12.9627 31.24 13 31.128 13ZM31.384 10.144H33.296C33.4187 10.1387 33.536 10.0907 33.648 10C33.7653 9.904 33.8587 9.776 33.928 9.616C34.0027 9.456 34.04 9.27467 34.04 9.072C34.04 8.816 33.9627 8.60267 33.808 8.432C33.6587 8.256 33.48 8.168 33.272 8.168H31.4L31.488 7.96V10.312L31.384 10.144ZM37.9263 13.08C37.4836 13.08 37.0996 12.9893 36.7743 12.808C36.4489 12.6213 36.1956 12.368 36.0143 12.048C35.8383 11.7227 35.7503 11.352 35.7503 10.936C35.7503 10.4667 35.8436 10.0667 36.0303 9.736C36.2223 9.4 36.4703 9.144 36.7743 8.968C37.0783 8.78667 37.4009 8.696 37.7423 8.696C38.0036 8.696 38.2516 8.74933 38.4863 8.856C38.7209 8.95733 38.9289 9.10133 39.1103 9.288C39.2969 9.46933 39.4436 9.68533 39.5503 9.936C39.6569 10.1813 39.7129 10.4507 39.7183 10.744C39.7129 10.8507 39.6703 10.9387 39.5903 11.008C39.5103 11.0773 39.4169 11.112 39.3103 11.112H36.1983L36.0063 10.432H39.0143L38.8623 10.576V10.376C38.8516 10.1893 38.7903 10.0267 38.6783 9.888C38.5663 9.744 38.4276 9.63467 38.2623 9.56C38.0969 9.48 37.9236 9.44 37.7423 9.44C37.5823 9.44 37.4276 9.46667 37.2783 9.52C37.1343 9.568 37.0036 9.648 36.8863 9.76C36.7743 9.872 36.6836 10.0213 36.6143 10.208C36.5503 10.3893 36.5183 10.616 36.5183 10.888C36.5183 11.1813 36.5796 11.4373 36.7023 11.656C36.8249 11.8747 36.9903 12.0453 37.1983 12.168C37.4063 12.2853 37.6356 12.344 37.8863 12.344C38.0836 12.344 38.2463 12.3253 38.3743 12.288C38.5023 12.2453 38.6089 12.1947 38.6943 12.136C38.7796 12.0773 38.8543 12.0213 38.9183 11.968C38.9983 11.92 39.0783 11.896 39.1583 11.896C39.2543 11.896 39.3343 11.9307 39.3983 12C39.4623 12.064 39.4943 12.1413 39.4943 12.232C39.4943 12.3493 39.4356 12.456 39.3183 12.552C39.1743 12.6907 38.9743 12.8133 38.7183 12.92C38.4676 13.0267 38.2036 13.08 37.9263 13.08ZM44.0705 7.08C44.1878 7.08 44.2838 7.11733 44.3585 7.192C44.4332 7.26667 44.4705 7.36533 44.4705 7.488V12.592C44.4705 12.7093 44.4332 12.808 44.3585 12.888C44.2838 12.9627 44.1878 13 44.0705 13C43.9585 13 43.8625 12.9627 43.7825 12.888C43.7078 12.808 43.6705 12.7093 43.6705 12.592V12.016L43.8385 12.024C43.8385 12.12 43.7985 12.2293 43.7185 12.352C43.6438 12.4693 43.5398 12.584 43.4065 12.696C43.2732 12.808 43.1158 12.9013 42.9345 12.976C42.7532 13.0453 42.5585 13.08 42.3505 13.08C41.9825 13.08 41.6518 12.9867 41.3585 12.8C41.0652 12.608 40.8332 12.3493 40.6625 12.024C40.4918 11.6933 40.4065 11.3147 40.4065 10.888C40.4065 10.4613 40.4918 10.0853 40.6625 9.76C40.8332 9.42933 41.0625 9.17067 41.3505 8.984C41.6438 8.792 41.9692 8.696 42.3265 8.696C42.5505 8.696 42.7585 8.73333 42.9505 8.808C43.1478 8.88267 43.3185 8.97867 43.4625 9.096C43.6065 9.21333 43.7185 9.33867 43.7985 9.472C43.8785 9.6 43.9185 9.72267 43.9185 9.84L43.6705 9.864V7.488C43.6705 7.37067 43.7078 7.27467 43.7825 7.2C43.8625 7.12 43.9585 7.08 44.0705 7.08ZM42.4385 12.344C42.6945 12.344 42.9158 12.28 43.1025 12.152C43.2945 12.024 43.4438 11.8507 43.5505 11.632C43.6572 11.4133 43.7105 11.1653 43.7105 10.888C43.7105 10.6107 43.6572 10.3627 43.5505 10.144C43.4438 9.92533 43.2945 9.752 43.1025 9.624C42.9105 9.496 42.6892 9.432 42.4385 9.432C42.1932 9.432 41.9745 9.496 41.7825 9.624C41.5958 9.752 41.4465 9.92533 41.3345 10.144C41.2278 10.3627 41.1745 10.6107 41.1745 10.888C41.1745 11.1653 41.2278 11.4133 41.3345 11.632C41.4465 11.8507 41.5958 12.024 41.7825 12.152C41.9745 12.28 42.1932 12.344 42.4385 12.344ZM49.0393 7.08C49.1566 7.08 49.2526 7.11733 49.3273 7.192C49.4019 7.26667 49.4392 7.36533 49.4392 7.488V12.592C49.4392 12.7093 49.4019 12.808 49.3273 12.888C49.2526 12.9627 49.1566 13 49.0393 13C48.9273 13 48.8313 12.9627 48.7513 12.888C48.6766 12.808 48.6393 12.7093 48.6393 12.592V12.016L48.8073 12.024C48.8073 12.12 48.7673 12.2293 48.6873 12.352C48.6126 12.4693 48.5086 12.584 48.3753 12.696C48.2419 12.808 48.0846 12.9013 47.9033 12.976C47.7219 13.0453 47.5273 13.08 47.3193 13.08C46.9513 13.08 46.6206 12.9867 46.3273 12.8C46.0339 12.608 45.8019 12.3493 45.6313 12.024C45.4606 11.6933 45.3753 11.3147 45.3753 10.888C45.3753 10.4613 45.4606 10.0853 45.6313 9.76C45.8019 9.42933 46.0313 9.17067 46.3193 8.984C46.6126 8.792 46.9379 8.696 47.2953 8.696C47.5193 8.696 47.7273 8.73333 47.9193 8.808C48.1166 8.88267 48.2873 8.97867 48.4313 9.096C48.5753 9.21333 48.6873 9.33867 48.7673 9.472C48.8473 9.6 48.8873 9.72267 48.8873 9.84L48.6393 9.864V7.488C48.6393 7.37067 48.6766 7.27467 48.7513 7.2C48.8313 7.12 48.9273 7.08 49.0393 7.08ZM47.4073 12.344C47.6633 12.344 47.8846 12.28 48.0713 12.152C48.2633 12.024 48.4126 11.8507 48.5193 11.632C48.6259 11.4133 48.6793 11.1653 48.6793 10.888C48.6793 10.6107 48.6259 10.3627 48.5193 10.144C48.4126 9.92533 48.2633 9.752 48.0713 9.624C47.8793 9.496 47.6579 9.432 47.4073 9.432C47.1619 9.432 46.9433 9.496 46.7513 9.624C46.5646 9.752 46.4153 9.92533 46.3033 10.144C46.1966 10.3627 46.1433 10.6107 46.1433 10.888C46.1433 11.1653 46.1966 11.4133 46.3033 11.632C46.4153 11.8507 46.5646 12.024 46.7513 12.152C46.9433 12.28 47.1619 12.344 47.4073 12.344ZM51.312 12.592C51.312 12.7093 51.2747 12.808 51.2 12.888C51.1253 12.9627 51.0293 13 50.912 13C50.8 13 50.704 12.9627 50.624 12.888C50.5493 12.808 50.512 12.7093 50.512 12.592V9.168C50.512 9.05067 50.5493 8.95467 50.624 8.88C50.704 8.8 50.8 8.76 50.912 8.76C51.0293 8.76 51.1253 8.8 51.2 8.88C51.2747 8.95467 51.312 9.05067 51.312 9.168V12.592ZM50.904 8.232C50.7493 8.232 50.6373 8.20533 50.568 8.152C50.4987 8.09333 50.464 7.99733 50.464 7.864V7.736C50.464 7.60267 50.5013 7.50933 50.576 7.456C50.6507 7.40267 50.7627 7.376 50.912 7.376C51.072 7.376 51.1867 7.40533 51.256 7.464C51.3253 7.51733 51.36 7.608 51.36 7.736V7.864C51.36 8.00267 51.3227 8.09867 51.248 8.152C51.1787 8.20533 51.064 8.232 50.904 8.232ZM52.3321 8.84H54.2121C54.3188 8.84 54.4068 8.87733 54.4761 8.952C54.5508 9.02133 54.5881 9.10933 54.5881 9.216C54.5881 9.31733 54.5508 9.40267 54.4761 9.472C54.4068 9.54133 54.3188 9.576 54.2121 9.576H52.3321C52.2255 9.576 52.1348 9.54133 52.0601 9.472C51.9908 9.39733 51.9561 9.30933 51.9561 9.208C51.9561 9.10133 51.9908 9.01333 52.0601 8.944C52.1348 8.87467 52.2255 8.84 52.3321 8.84ZM53.1721 7.8C53.2895 7.8 53.3855 7.84 53.4601 7.92C53.5348 7.99467 53.5721 8.09067 53.5721 8.208V11.92C53.5721 12.016 53.5881 12.0933 53.6201 12.152C53.6521 12.2107 53.6948 12.2507 53.7481 12.272C53.8068 12.2933 53.8655 12.304 53.9241 12.304C53.9828 12.304 54.0335 12.2933 54.0761 12.272C54.1241 12.2507 54.1801 12.24 54.2441 12.24C54.3081 12.24 54.3668 12.2693 54.4201 12.328C54.4735 12.3867 54.5001 12.4667 54.5001 12.568C54.5001 12.696 54.4308 12.8 54.2921 12.88C54.1535 12.96 54.0041 13 53.8441 13C53.7535 13 53.6468 12.992 53.5241 12.976C53.4015 12.96 53.2815 12.92 53.1641 12.856C53.0521 12.792 52.9588 12.6907 52.8841 12.552C52.8095 12.408 52.7721 12.208 52.7721 11.952V8.208C52.7721 8.09067 52.8095 7.99467 52.8841 7.92C52.9641 7.84 53.0601 7.8 53.1721 7.8Z" fill="#F2EEFF"/>
<defs>
<linearGradient id="paint0_linear_265_26" x1="5" y1="14.9764" x2="17.4673" y2="11.0738" gradientUnits="userSpaceOnUse">
<stop stop-color="#FFD1A7"/>
<stop offset="1" stop-color="#FF5A8B"/>
</linearGradient>
<clipPath id="clip0_265_26">
<rect width="10.566" height="10" fill="white" transform="translate(5 5)"/>
</clipPath>
</defs>
</svg>
