<svg width="75" height="20" viewBox="0 0 75 20" fill="none" xmlns="http://www.w3.org/2000/svg">
<rect width="75" height="20" rx="4" fill="#161316"/>
<rect x="20" width="2" height="20" fill="#F2EEFF" fill-opacity="0.1"/>
<path d="M14.3548 5.82725C14.3548 5.82725 15.3261 5.4485 15.2448 6.36825C15.2181 6.747 14.9753 8.07275 14.7863 9.5065L14.1388 13.754C14.1388 13.754 14.0848 14.3763 13.5991 14.4845C13.1136 14.5925 12.3851 14.1058 12.2501 13.9975C12.1421 13.9163 10.2266 12.6988 9.55209 12.1038C9.36309 11.9413 9.14709 11.6168 9.57909 11.238L12.4118 8.5325C12.7356 8.208 13.0593 7.4505 11.7103 8.37025L7.93284 10.9403C7.93284 10.9403 7.50109 11.211 6.69184 10.9675L4.93784 10.4263C4.93784 10.4263 4.29034 10.0205 5.39659 9.61475C8.09484 8.34325 11.4136 7.04475 14.3543 5.82725H14.3548Z" fill="#F2EEFF"/>
<path d="M14.3548 5.82725C14.3548 5.82725 15.3261 5.4485 15.2448 6.36825C15.2181 6.747 14.9753 8.07275 14.7863 9.5065L14.1388 13.754C14.1388 13.754 14.0848 14.3763 13.5991 14.4845C13.1136 14.5925 12.3851 14.1058 12.2501 13.9975C12.1421 13.9163 10.2266 12.6988 9.55209 12.1038C9.36309 11.9413 9.14709 11.6168 9.57909 11.238L12.4118 8.5325C12.7356 8.208 13.0593 7.4505 11.7103 8.37025L7.93284 10.9403C7.93284 10.9403 7.50109 11.211 6.69184 10.9675L4.93784 10.4263C4.93784 10.4263 4.29034 10.0205 5.39659 9.61475C8.09484 8.34325 11.4136 7.04475 14.3543 5.82725H14.3548Z" fill="url(#paint0_linear_264_12)"/>
<path d="M33.744 12.216C33.856 12.216 33.9493 12.2533 34.024 12.328C34.104 12.4027 34.144 12.496 34.144 12.608C34.144 12.72 34.104 12.8133 34.024 12.888C33.9493 12.9627 33.856 13 33.744 13H31.056C30.9387 13 30.84 12.9627 30.76 12.888C30.6853 12.808 30.648 12.7093 30.648 12.592V7.808C30.648 7.69067 30.688 7.59467 30.768 7.52C30.848 7.44 30.952 7.4 31.08 7.4C31.1867 7.4 31.28 7.44 31.36 7.52C31.4453 7.59467 31.488 7.69067 31.488 7.808V12.352L31.32 12.216H33.744ZM35.7261 12.592C35.7261 12.7093 35.6887 12.808 35.6141 12.888C35.5394 12.9627 35.4434 13 35.3261 13C35.2141 13 35.1181 12.9627 35.0381 12.888C34.9634 12.808 34.9261 12.7093 34.9261 12.592V9.168C34.9261 9.05067 34.9634 8.95467 35.0381 8.88C35.1181 8.8 35.2141 8.76 35.3261 8.76C35.4434 8.76 35.5394 8.8 35.6141 8.88C35.6887 8.95467 35.7261 9.05067 35.7261 9.168V12.592ZM35.3181 8.232C35.1634 8.232 35.0514 8.20533 34.9821 8.152C34.9127 8.09333 34.8781 7.99733 34.8781 7.864V7.736C34.8781 7.60267 34.9154 7.50933 34.9901 7.456C35.0647 7.40267 35.1767 7.376 35.3261 7.376C35.4861 7.376 35.6007 7.40533 35.6701 7.464C35.7394 7.51733 35.7741 7.608 35.7741 7.736V7.864C35.7741 8.00267 35.7367 8.09867 35.6621 8.152C35.5927 8.20533 35.4781 8.232 35.3181 8.232ZM38.9222 8.696C39.2955 8.696 39.6262 8.78933 39.9142 8.976C40.2075 9.16267 40.4395 9.42133 40.6102 9.752C40.7809 10.0773 40.8662 10.4533 40.8662 10.88C40.8662 11.3067 40.7809 11.6853 40.6102 12.016C40.4395 12.3467 40.2102 12.608 39.9222 12.8C39.6342 12.9867 39.3089 13.08 38.9462 13.08C38.7435 13.08 38.5515 13.048 38.3702 12.984C38.1889 12.9147 38.0289 12.8293 37.8902 12.728C37.7515 12.6213 37.6369 12.5093 37.5462 12.392C37.4609 12.2747 37.4075 12.1653 37.3862 12.064L37.6022 11.96V12.656C37.6022 12.768 37.5622 12.864 37.4822 12.944C37.4075 13.0187 37.3142 13.056 37.2022 13.056C37.0849 13.056 36.9889 13.0187 36.9142 12.944C36.8395 12.8693 36.8022 12.7733 36.8022 12.656V7.488C36.8022 7.37067 36.8395 7.27467 36.9142 7.2C36.9889 7.12 37.0849 7.08 37.2022 7.08C37.3142 7.08 37.4075 7.12 37.4822 7.2C37.5622 7.27467 37.6022 7.37067 37.6022 7.488V9.736L37.4742 9.664C37.4902 9.56267 37.5409 9.45867 37.6262 9.352C37.7115 9.24 37.8182 9.13333 37.9462 9.032C38.0795 8.93067 38.2289 8.85067 38.3942 8.792C38.5649 8.728 38.7409 8.696 38.9222 8.696ZM38.8342 9.432C38.5782 9.432 38.3542 9.496 38.1622 9.624C37.9755 9.752 37.8289 9.92533 37.7222 10.144C37.6155 10.3573 37.5622 10.6027 37.5622 10.88C37.5622 11.1573 37.6155 11.408 37.7222 11.632C37.8289 11.8507 37.9755 12.024 38.1622 12.152C38.3542 12.28 38.5782 12.344 38.8342 12.344C39.0849 12.344 39.3035 12.28 39.4902 12.152C39.6769 12.024 39.8235 11.848 39.9302 11.624C40.0422 11.4 40.0982 11.152 40.0982 10.88C40.0982 10.6027 40.0422 10.3573 39.9302 10.144C39.8235 9.92533 39.6769 9.752 39.4902 9.624C39.3035 9.496 39.0849 9.432 38.8342 9.432ZM42.1709 13C42.0536 13 41.9576 12.9627 41.8829 12.888C41.8083 12.808 41.7709 12.7093 41.7709 12.592V9.2C41.7709 9.08267 41.8083 8.98667 41.8829 8.912C41.9576 8.832 42.0536 8.792 42.1709 8.792C42.2829 8.792 42.3763 8.832 42.4509 8.912C42.5309 8.98667 42.5709 9.08267 42.5709 9.2V10.096L42.4909 9.752C42.5336 9.60267 42.5976 9.464 42.6829 9.336C42.7736 9.208 42.8803 9.096 43.0029 9C43.1256 8.904 43.2616 8.82933 43.4109 8.776C43.5656 8.72267 43.7256 8.696 43.8909 8.696C44.0296 8.696 44.1496 8.73333 44.2509 8.808C44.3523 8.88267 44.4029 8.976 44.4029 9.088C44.4029 9.232 44.3656 9.33867 44.2909 9.408C44.2163 9.472 44.1336 9.504 44.0429 9.504C43.9629 9.504 43.8856 9.488 43.8109 9.456C43.7363 9.41867 43.6483 9.4 43.5469 9.4C43.4349 9.4 43.3203 9.42933 43.2029 9.488C43.0856 9.54667 42.9789 9.63467 42.8829 9.752C42.7869 9.864 42.7096 9.99733 42.6509 10.152C42.5976 10.3067 42.5709 10.48 42.5709 10.672V12.592C42.5709 12.7093 42.5309 12.808 42.4509 12.888C42.3763 12.9627 42.2829 13 42.1709 13ZM46.895 13.08C46.4523 13.08 46.0683 12.9893 45.743 12.808C45.4177 12.6213 45.1643 12.368 44.983 12.048C44.807 11.7227 44.719 11.352 44.719 10.936C44.719 10.4667 44.8123 10.0667 44.999 9.736C45.191 9.4 45.439 9.144 45.743 8.968C46.047 8.78667 46.3697 8.696 46.711 8.696C46.9723 8.696 47.2203 8.74933 47.455 8.856C47.6897 8.95733 47.8977 9.10133 48.079 9.288C48.2657 9.46933 48.4123 9.68533 48.519 9.936C48.6257 10.1813 48.6817 10.4507 48.687 10.744C48.6817 10.8507 48.639 10.9387 48.559 11.008C48.479 11.0773 48.3857 11.112 48.279 11.112H45.167L44.975 10.432H47.983L47.831 10.576V10.376C47.8203 10.1893 47.759 10.0267 47.647 9.888C47.535 9.744 47.3963 9.63467 47.231 9.56C47.0657 9.48 46.8923 9.44 46.711 9.44C46.551 9.44 46.3963 9.46667 46.247 9.52C46.103 9.568 45.9723 9.648 45.855 9.76C45.743 9.872 45.6523 10.0213 45.583 10.208C45.519 10.3893 45.487 10.616 45.487 10.888C45.487 11.1813 45.5483 11.4373 45.671 11.656C45.7937 11.8747 45.959 12.0453 46.167 12.168C46.375 12.2853 46.6043 12.344 46.855 12.344C47.0523 12.344 47.215 12.3253 47.343 12.288C47.471 12.2453 47.5777 12.1947 47.663 12.136C47.7483 12.0773 47.823 12.0213 47.887 11.968C47.967 11.92 48.047 11.896 48.127 11.896C48.223 11.896 48.303 11.9307 48.367 12C48.431 12.064 48.463 12.1413 48.463 12.232C48.463 12.3493 48.4043 12.456 48.287 12.552C48.143 12.6907 47.943 12.8133 47.687 12.92C47.4363 13.0267 47.1723 13.08 46.895 13.08ZM49.5353 8.84H51.4153C51.5219 8.84 51.6099 8.87733 51.6793 8.952C51.7539 9.02133 51.7913 9.10933 51.7913 9.216C51.7913 9.31733 51.7539 9.40267 51.6793 9.472C51.6099 9.54133 51.5219 9.576 51.4153 9.576H49.5353C49.4286 9.576 49.3379 9.54133 49.2633 9.472C49.1939 9.39733 49.1593 9.30933 49.1593 9.208C49.1593 9.10133 49.1939 9.01333 49.2633 8.944C49.3379 8.87467 49.4286 8.84 49.5353 8.84ZM50.3753 7.8C50.4926 7.8 50.5886 7.84 50.6633 7.92C50.7379 7.99467 50.7753 8.09067 50.7753 8.208V11.92C50.7753 12.016 50.7913 12.0933 50.8233 12.152C50.8553 12.2107 50.8979 12.2507 50.9513 12.272C51.0099 12.2933 51.0686 12.304 51.1273 12.304C51.1859 12.304 51.2366 12.2933 51.2793 12.272C51.3273 12.2507 51.3833 12.24 51.4473 12.24C51.5113 12.24 51.5699 12.2693 51.6233 12.328C51.6766 12.3867 51.7033 12.4667 51.7033 12.568C51.7033 12.696 51.6339 12.8 51.4953 12.88C51.3566 12.96 51.2073 13 51.0473 13C50.9566 13 50.8499 12.992 50.7273 12.976C50.6046 12.96 50.4846 12.92 50.3673 12.856C50.2553 12.792 50.1619 12.6907 50.0872 12.552C50.0126 12.408 49.9753 12.208 49.9753 11.952V8.208C49.9753 8.09067 50.0126 7.99467 50.0872 7.92C50.1672 7.84 50.2633 7.8 50.3753 7.8ZM55.8132 8.792C55.9252 8.792 56.0185 8.832 56.0932 8.912C56.1732 8.98667 56.2132 9.08267 56.2132 9.2V11.304C56.2132 11.8587 56.0585 12.2933 55.7492 12.608C55.4399 12.9173 55.0025 13.072 54.4372 13.072C53.8772 13.072 53.4425 12.9173 53.1332 12.608C52.8292 12.2933 52.6772 11.8587 52.6772 11.304V9.2C52.6772 9.08267 52.7145 8.98667 52.7892 8.912C52.8639 8.832 52.9599 8.792 53.0772 8.792C53.1892 8.792 53.2825 8.832 53.3572 8.912C53.4372 8.98667 53.4772 9.08267 53.4772 9.2V11.304C53.4772 11.6507 53.5572 11.9093 53.7172 12.08C53.8825 12.2507 54.1225 12.336 54.4372 12.336C54.7572 12.336 54.9999 12.2507 55.1652 12.08C55.3305 11.9093 55.4132 11.6507 55.4132 11.304V9.2C55.4132 9.08267 55.4505 8.98667 55.5252 8.912C55.5999 8.832 55.6959 8.792 55.8132 8.792ZM59.4456 8.696C59.819 8.696 60.1496 8.78933 60.4376 8.976C60.731 9.16267 60.963 9.42133 61.1336 9.752C61.3043 10.0773 61.3896 10.4533 61.3896 10.88C61.3896 11.3067 61.3043 11.6853 61.1336 12.016C60.963 12.3467 60.7336 12.608 60.4456 12.8C60.1576 12.9867 59.8323 13.08 59.4696 13.08C59.267 13.08 59.075 13.048 58.8936 12.984C58.7123 12.9147 58.5523 12.8293 58.4136 12.728C58.275 12.6213 58.1603 12.5093 58.0696 12.392C57.9843 12.2747 57.931 12.1653 57.9096 12.064L58.1256 11.96V12.656C58.1256 12.768 58.0856 12.864 58.0056 12.944C57.931 13.0187 57.8376 13.056 57.7256 13.056C57.6083 13.056 57.5123 13.0187 57.4376 12.944C57.363 12.8693 57.3256 12.7733 57.3256 12.656V7.488C57.3256 7.37067 57.363 7.27467 57.4376 7.2C57.5123 7.12 57.6083 7.08 57.7256 7.08C57.8376 7.08 57.931 7.12 58.0056 7.2C58.0856 7.27467 58.1256 7.37067 58.1256 7.488V9.736L57.9976 9.664C58.0136 9.56267 58.0643 9.45867 58.1496 9.352C58.235 9.24 58.3416 9.13333 58.4696 9.032C58.603 8.93067 58.7523 8.85067 58.9176 8.792C59.0883 8.728 59.2643 8.696 59.4456 8.696ZM59.3576 9.432C59.1016 9.432 58.8776 9.496 58.6856 9.624C58.499 9.752 58.3523 9.92533 58.2456 10.144C58.139 10.3573 58.0856 10.6027 58.0856 10.88C58.0856 11.1573 58.139 11.408 58.2456 11.632C58.3523 11.8507 58.499 12.024 58.6856 12.152C58.8776 12.28 59.1016 12.344 59.3576 12.344C59.6083 12.344 59.827 12.28 60.0136 12.152C60.2003 12.024 60.347 11.848 60.4536 11.624C60.5656 11.4 60.6216 11.152 60.6216 10.88C60.6216 10.6027 60.5656 10.3573 60.4536 10.144C60.347 9.92533 60.2003 9.752 60.0136 9.624C59.827 9.496 59.6083 9.432 59.3576 9.432ZM64.2544 13.08C63.8117 13.08 63.4277 12.9893 63.1024 12.808C62.777 12.6213 62.5237 12.368 62.3424 12.048C62.1664 11.7227 62.0784 11.352 62.0784 10.936C62.0784 10.4667 62.1717 10.0667 62.3584 9.736C62.5504 9.4 62.7984 9.144 63.1024 8.968C63.4064 8.78667 63.729 8.696 64.0704 8.696C64.3317 8.696 64.5797 8.74933 64.8144 8.856C65.049 8.95733 65.257 9.10133 65.4384 9.288C65.625 9.46933 65.7717 9.68533 65.8784 9.936C65.985 10.1813 66.041 10.4507 66.0464 10.744C66.041 10.8507 65.9984 10.9387 65.9184 11.008C65.8384 11.0773 65.745 11.112 65.6384 11.112H62.5264L62.3344 10.432H65.3424L65.1904 10.576V10.376C65.1797 10.1893 65.1184 10.0267 65.0064 9.888C64.8944 9.744 64.7557 9.63467 64.5904 9.56C64.425 9.48 64.2517 9.44 64.0704 9.44C63.9104 9.44 63.7557 9.46667 63.6064 9.52C63.4624 9.568 63.3317 9.648 63.2144 9.76C63.1024 9.872 63.0117 10.0213 62.9424 10.208C62.8784 10.3893 62.8464 10.616 62.8464 10.888C62.8464 11.1813 62.9077 11.4373 63.0304 11.656C63.153 11.8747 63.3184 12.0453 63.5264 12.168C63.7344 12.2853 63.9637 12.344 64.2144 12.344C64.4117 12.344 64.5744 12.3253 64.7024 12.288C64.8304 12.2453 64.937 12.1947 65.0224 12.136C65.1077 12.0773 65.1824 12.0213 65.2464 11.968C65.3264 11.92 65.4064 11.896 65.4864 11.896C65.5824 11.896 65.6624 11.9307 65.7264 12C65.7904 12.064 65.8224 12.1413 65.8224 12.232C65.8224 12.3493 65.7637 12.456 65.6464 12.552C65.5024 12.6907 65.3024 12.8133 65.0464 12.92C64.7957 13.0267 64.5317 13.08 64.2544 13.08Z" fill="#F2EEFF"/>
<defs>
<linearGradient id="paint0_linear_264_12" x1="4.74951" y1="14.5" x2="16.833" y2="10.2144" gradientUnits="userSpaceOnUse">
<stop stop-color="#FFD1A7"/>
<stop offset="1" stop-color="#FF5A8B"/>
</linearGradient>
</defs>
</svg>
