<svg width="74" height="20" viewBox="0 0 74 20" fill="none" xmlns="http://www.w3.org/2000/svg">
<rect width="74" height="20" rx="4" fill="#161316"/>
<rect x="20" width="2" height="20" fill="#2C292D"/>
<path d="M14.3548 5.82725C14.3548 5.82725 15.3261 5.4485 15.2448 6.36825C15.2181 6.747 14.9753 8.07275 14.7863 9.5065L14.1388 13.754C14.1388 13.754 14.0848 14.3763 13.5991 14.4845C13.1136 14.5925 12.3851 14.1058 12.2501 13.9975C12.1421 13.9163 10.2266 12.6988 9.55209 12.1038C9.36309 11.9413 9.14709 11.6168 9.57909 11.238L12.4118 8.5325C12.7356 8.208 13.0593 7.4505 11.7103 8.37025L7.93284 10.9403C7.93284 10.9403 7.50109 11.211 6.69184 10.9675L4.93784 10.4263C4.93784 10.4263 4.29034 10.0205 5.39659 9.61475C8.09484 8.34325 11.4136 7.04475 14.3543 5.82725H14.3548Z" fill="#F2EEFF"/>
<path d="M14.3548 5.82725C14.3548 5.82725 15.3261 5.4485 15.2448 6.36825C15.2181 6.747 14.9753 8.07275 14.7863 9.5065L14.1388 13.754C14.1388 13.754 14.0848 14.3763 13.5991 14.4845C13.1136 14.5925 12.3851 14.1058 12.2501 13.9975C12.1421 13.9163 10.2266 12.6988 9.55209 12.1038C9.36309 11.9413 9.14709 11.6168 9.57909 11.238L12.4118 8.5325C12.7356 8.208 13.0593 7.4505 11.7103 8.37025L7.93284 10.9403C7.93284 10.9403 7.50109 11.211 6.69184 10.9675L4.93784 10.4263C4.93784 10.4263 4.29034 10.0205 5.39659 9.61475C8.09484 8.34325 11.4136 7.04475 14.3543 5.82725H14.3548Z" fill="url(#paint0_linear_264_12)"/>
<path d="M32.472 13C32.344 13 32.24 12.9627 32.16 12.888C32.0853 12.808 32.048 12.7093 32.048 12.592V7.8H32.904V12.592C32.904 12.7093 32.8613 12.808 32.776 12.888C32.696 12.9627 32.5947 13 32.472 13ZM30.656 8.168C30.544 8.168 30.448 8.13333 30.368 8.064C30.288 7.98933 30.248 7.89333 30.248 7.776C30.248 7.664 30.288 7.57333 30.368 7.504C30.448 7.43467 30.544 7.4 30.656 7.4H34.296C34.408 7.4 34.5013 7.43733 34.576 7.512C34.656 7.58133 34.696 7.672 34.696 7.784C34.696 7.90133 34.656 7.99467 34.576 8.064C34.5013 8.13333 34.408 8.168 34.296 8.168H30.656ZM36.5122 13.08C36.0695 13.08 35.6855 12.9893 35.3602 12.808C35.0349 12.6213 34.7815 12.368 34.6002 12.048C34.4242 11.7227 34.3362 11.352 34.3362 10.936C34.3362 10.4667 34.4295 10.0667 34.6162 9.736C34.8082 9.4 35.0562 9.144 35.3602 8.968C35.6642 8.78667 35.9869 8.696 36.3282 8.696C36.5895 8.696 36.8375 8.74933 37.0722 8.856C37.3069 8.95733 37.5149 9.10133 37.6962 9.288C37.8829 9.46933 38.0295 9.68533 38.1362 9.936C38.2429 10.1813 38.2989 10.4507 38.3042 10.744C38.2989 10.8507 38.2562 10.9387 38.1762 11.008C38.0962 11.0773 38.0029 11.112 37.8962 11.112H34.7842L34.5922 10.432H37.6002L37.4482 10.576V10.376C37.4375 10.1893 37.3762 10.0267 37.2642 9.888C37.1522 9.744 37.0135 9.63467 36.8482 9.56C36.6829 9.48 36.5095 9.44 36.3282 9.44C36.1682 9.44 36.0135 9.46667 35.8642 9.52C35.7202 9.568 35.5895 9.648 35.4722 9.76C35.3602 9.872 35.2695 10.0213 35.2002 10.208C35.1362 10.3893 35.1042 10.616 35.1042 10.888C35.1042 11.1813 35.1655 11.4373 35.2882 11.656C35.4109 11.8747 35.5762 12.0453 35.7842 12.168C35.9922 12.2853 36.2215 12.344 36.4722 12.344C36.6695 12.344 36.8322 12.3253 36.9602 12.288C37.0882 12.2453 37.1949 12.1947 37.2802 12.136C37.3655 12.0773 37.4402 12.0213 37.5042 11.968C37.5842 11.92 37.6642 11.896 37.7442 11.896C37.8402 11.896 37.9202 11.9307 37.9842 12C38.0482 12.064 38.0802 12.1413 38.0802 12.232C38.0802 12.3493 38.0215 12.456 37.9042 12.552C37.7602 12.6907 37.5602 12.8133 37.3042 12.92C37.0535 13.0267 36.7895 13.08 36.5122 13.08ZM40.0724 12.592C40.0724 12.7093 40.0324 12.808 39.9524 12.888C39.8778 12.9627 39.7844 13 39.6724 13C39.5604 13 39.4644 12.9627 39.3844 12.888C39.3098 12.808 39.2724 12.7093 39.2724 12.592V7.488C39.2724 7.37067 39.3124 7.27467 39.3924 7.2C39.4724 7.12 39.5684 7.08 39.6804 7.08C39.7978 7.08 39.8911 7.12 39.9604 7.2C40.0351 7.27467 40.0724 7.37067 40.0724 7.488V12.592ZM43.145 13.08C42.7023 13.08 42.3183 12.9893 41.993 12.808C41.6677 12.6213 41.4143 12.368 41.233 12.048C41.057 11.7227 40.969 11.352 40.969 10.936C40.969 10.4667 41.0623 10.0667 41.249 9.736C41.441 9.4 41.689 9.144 41.993 8.968C42.297 8.78667 42.6197 8.696 42.961 8.696C43.2223 8.696 43.4703 8.74933 43.705 8.856C43.9397 8.95733 44.1477 9.10133 44.329 9.288C44.5157 9.46933 44.6623 9.68533 44.769 9.936C44.8757 10.1813 44.9317 10.4507 44.937 10.744C44.9317 10.8507 44.889 10.9387 44.809 11.008C44.729 11.0773 44.6357 11.112 44.529 11.112H41.417L41.225 10.432H44.233L44.081 10.576V10.376C44.0703 10.1893 44.009 10.0267 43.897 9.888C43.785 9.744 43.6463 9.63467 43.481 9.56C43.3157 9.48 43.1423 9.44 42.961 9.44C42.801 9.44 42.6463 9.46667 42.497 9.52C42.353 9.568 42.2223 9.648 42.105 9.76C41.993 9.872 41.9023 10.0213 41.833 10.208C41.769 10.3893 41.737 10.616 41.737 10.888C41.737 11.1813 41.7983 11.4373 41.921 11.656C42.0437 11.8747 42.209 12.0453 42.417 12.168C42.625 12.2853 42.8543 12.344 43.105 12.344C43.3023 12.344 43.465 12.3253 43.593 12.288C43.721 12.2453 43.8277 12.1947 43.913 12.136C43.9983 12.0773 44.073 12.0213 44.137 11.968C44.217 11.92 44.297 11.896 44.377 11.896C44.473 11.896 44.553 11.9307 44.617 12C44.681 12.064 44.713 12.1413 44.713 12.232C44.713 12.3493 44.6543 12.456 44.537 12.552C44.393 12.6907 44.193 12.8133 43.937 12.92C43.6863 13.0267 43.4223 13.08 43.145 13.08ZM47.5542 8.696C47.7835 8.696 47.9942 8.73333 48.1862 8.808C48.3782 8.88267 48.5435 8.97867 48.6822 9.096C48.8262 9.208 48.9382 9.32533 49.0182 9.448C49.0982 9.57067 49.1382 9.67733 49.1382 9.768L48.9542 9.776V9.136C48.9542 9.024 48.9915 8.928 49.0662 8.848C49.1409 8.768 49.2369 8.728 49.3542 8.728C49.4715 8.728 49.5675 8.768 49.6422 8.848C49.7169 8.92267 49.7542 9.01867 49.7542 9.136V12.664C49.7542 13.1173 49.6582 13.4853 49.4662 13.768C49.2742 14.056 49.0182 14.2667 48.6982 14.4C48.3835 14.5333 48.0369 14.6 47.6582 14.6C47.5249 14.6 47.3675 14.5813 47.1862 14.544C47.0049 14.512 46.8369 14.472 46.6822 14.424C46.5329 14.376 46.4289 14.328 46.3702 14.28C46.2475 14.216 46.1649 14.1413 46.1222 14.056C46.0849 13.9707 46.0849 13.8853 46.1222 13.8C46.1755 13.6827 46.2475 13.6107 46.3382 13.584C46.4289 13.5573 46.5329 13.5653 46.6502 13.608C46.7035 13.624 46.7862 13.6533 46.8982 13.696C47.0102 13.7387 47.1355 13.776 47.2742 13.808C47.4129 13.8453 47.5435 13.864 47.6662 13.864C48.0929 13.864 48.4129 13.7653 48.6262 13.568C48.8449 13.3707 48.9542 13.1013 48.9542 12.76V12.04L49.0422 12.096C49.0262 12.208 48.9755 12.3227 48.8902 12.44C48.8102 12.552 48.7035 12.656 48.5702 12.752C48.4369 12.848 48.2822 12.928 48.1062 12.992C47.9355 13.0507 47.7595 13.08 47.5782 13.08C47.1995 13.08 46.8609 12.9867 46.5622 12.8C46.2635 12.608 46.0262 12.3493 45.8502 12.024C45.6742 11.6933 45.5862 11.3147 45.5862 10.888C45.5862 10.4613 45.6742 10.0853 45.8502 9.76C46.0262 9.42933 46.2609 9.17067 46.5542 8.984C46.8529 8.792 47.1862 8.696 47.5542 8.696ZM47.6742 9.432C47.4129 9.432 47.1835 9.496 46.9862 9.624C46.7889 9.752 46.6342 9.92533 46.5222 10.144C46.4102 10.3627 46.3542 10.6107 46.3542 10.888C46.3542 11.1653 46.4102 11.4133 46.5222 11.632C46.6342 11.8507 46.7889 12.024 46.9862 12.152C47.1835 12.28 47.4129 12.344 47.6742 12.344C47.9355 12.344 48.1649 12.2827 48.3622 12.16C48.5595 12.032 48.7142 11.8587 48.8262 11.64C48.9382 11.416 48.9942 11.1653 48.9942 10.888C48.9942 10.6107 48.9382 10.3627 48.8262 10.144C48.7142 9.92 48.5595 9.74667 48.3622 9.624C48.1649 9.496 47.9355 9.432 47.6742 9.432ZM51.2647 13C51.1474 13 51.0514 12.9627 50.9767 12.888C50.902 12.808 50.8647 12.7093 50.8647 12.592V9.2C50.8647 9.08267 50.902 8.98667 50.9767 8.912C51.0514 8.832 51.1474 8.792 51.2647 8.792C51.3767 8.792 51.47 8.832 51.5447 8.912C51.6247 8.98667 51.6647 9.08267 51.6647 9.2V10.096L51.5847 9.752C51.6274 9.60267 51.6914 9.464 51.7767 9.336C51.8674 9.208 51.974 9.096 52.0967 9C52.2194 8.904 52.3554 8.82933 52.5047 8.776C52.6594 8.72267 52.8194 8.696 52.9847 8.696C53.1234 8.696 53.2434 8.73333 53.3447 8.808C53.446 8.88267 53.4967 8.976 53.4967 9.088C53.4967 9.232 53.4594 9.33867 53.3847 9.408C53.31 9.472 53.2274 9.504 53.1367 9.504C53.0567 9.504 52.9794 9.488 52.9047 9.456C52.83 9.41867 52.742 9.4 52.6407 9.4C52.5287 9.4 52.414 9.42933 52.2967 9.488C52.1794 9.54667 52.0727 9.63467 51.9767 9.752C51.8807 9.864 51.8034 9.99733 51.7447 10.152C51.6914 10.3067 51.6647 10.48 51.6647 10.672V12.592C51.6647 12.7093 51.6247 12.808 51.5447 12.888C51.47 12.9627 51.3767 13 51.2647 13ZM57.5627 8.728C57.68 8.728 57.776 8.768 57.8507 8.848C57.9254 8.92267 57.9627 9.01867 57.9627 9.136V12.592C57.9627 12.7093 57.9254 12.808 57.8507 12.888C57.776 12.9627 57.68 13 57.5627 13C57.4507 13 57.3547 12.9627 57.2747 12.888C57.2 12.808 57.1627 12.7093 57.1627 12.592V12.016L57.3307 12.04C57.3307 12.136 57.2907 12.2427 57.2107 12.36C57.136 12.4773 57.032 12.592 56.8987 12.704C56.7654 12.8107 56.608 12.9013 56.4267 12.976C56.2454 13.0453 56.0507 13.08 55.8427 13.08C55.4747 13.08 55.144 12.9867 54.8507 12.8C54.5574 12.608 54.3254 12.3467 54.1547 12.016C53.984 11.6853 53.8987 11.3093 53.8987 10.888C53.8987 10.456 53.984 10.0773 54.1547 9.752C54.3254 9.42133 54.5547 9.16267 54.8427 8.976C55.136 8.78933 55.4614 8.696 55.8187 8.696C56.048 8.696 56.2587 8.73333 56.4507 8.808C56.648 8.88267 56.8187 8.97867 56.9627 9.096C57.1067 9.21333 57.216 9.33867 57.2907 9.472C57.3707 9.6 57.4107 9.72267 57.4107 9.84L57.1627 9.864V9.136C57.1627 9.024 57.2 8.928 57.2747 8.848C57.3547 8.768 57.4507 8.728 57.5627 8.728ZM55.9307 12.344C56.1814 12.344 56.4027 12.28 56.5947 12.152C56.7867 12.024 56.936 11.8507 57.0427 11.632C57.1494 11.408 57.2027 11.16 57.2027 10.888C57.2027 10.6107 57.1494 10.3627 57.0427 10.144C56.936 9.92533 56.7867 9.752 56.5947 9.624C56.4027 9.496 56.1814 9.432 55.9307 9.432C55.6854 9.432 55.4667 9.496 55.2747 9.624C55.088 9.752 54.9387 9.92533 54.8267 10.144C54.72 10.3627 54.6667 10.6107 54.6667 10.888C54.6667 11.16 54.72 11.408 54.8267 11.632C54.9387 11.8507 55.088 12.024 55.2747 12.152C55.4667 12.28 55.6854 12.344 55.9307 12.344ZM61.1954 8.72C61.5901 8.72 61.8941 8.81867 62.1074 9.016C62.3208 9.208 62.4621 9.46933 62.5314 9.8L62.4034 9.76L62.4594 9.632C62.5288 9.49333 62.6328 9.35467 62.7714 9.216C62.9154 9.072 63.0861 8.95467 63.2834 8.864C63.4808 8.768 63.6914 8.72 63.9154 8.72C64.2834 8.72 64.5688 8.8 64.7714 8.96C64.9741 9.11467 65.1154 9.32533 65.1954 9.592C65.2754 9.85333 65.3154 10.1467 65.3154 10.472V12.592C65.3154 12.7093 65.2781 12.808 65.2034 12.888C65.1288 12.9627 65.0328 13 64.9154 13C64.8034 13 64.7074 12.9627 64.6274 12.888C64.5528 12.808 64.5154 12.7093 64.5154 12.592V10.48C64.5154 10.2933 64.4888 10.1227 64.4354 9.968C64.3874 9.81333 64.2994 9.69067 64.1714 9.6C64.0488 9.504 63.8781 9.456 63.6594 9.456C63.4514 9.456 63.2648 9.504 63.0994 9.6C62.9394 9.69067 62.8141 9.81333 62.7234 9.968C62.6328 10.1227 62.5874 10.2933 62.5874 10.48V12.592C62.5874 12.7093 62.5501 12.808 62.4754 12.888C62.4008 12.9627 62.3048 13 62.1874 13C62.0701 13 61.9741 12.9627 61.8994 12.888C61.8248 12.808 61.7874 12.7093 61.7874 12.592V10.472C61.7874 10.2853 61.7608 10.1147 61.7074 9.96C61.6594 9.80533 61.5741 9.68267 61.4514 9.592C61.3288 9.50133 61.1581 9.456 60.9394 9.456C60.7314 9.456 60.5474 9.50133 60.3874 9.592C60.2274 9.68267 60.1021 9.80533 60.0114 9.96C59.9261 10.1147 59.8834 10.2853 59.8834 10.472V12.592C59.8834 12.7093 59.8434 12.808 59.7634 12.888C59.6888 12.9627 59.5954 13 59.4834 13C59.3661 13 59.2701 12.9627 59.1954 12.888C59.1208 12.808 59.0834 12.7093 59.0834 12.592V9.2C59.0834 9.08267 59.1208 8.98667 59.1954 8.912C59.2701 8.832 59.3661 8.792 59.4834 8.792C59.5954 8.792 59.6888 8.832 59.7634 8.912C59.8434 8.98667 59.8834 9.08267 59.8834 9.2V9.672L59.7314 9.76C59.7688 9.64267 59.8301 9.52267 59.9154 9.4C60.0008 9.27733 60.1074 9.16533 60.2354 9.064C60.3688 8.96267 60.5154 8.88 60.6754 8.816C60.8354 8.752 61.0088 8.72 61.1954 8.72Z" fill="#F2EEFF"/>
<defs>
<linearGradient id="paint0_linear_264_12" x1="4.74951" y1="14.5" x2="16.833" y2="10.2144" gradientUnits="userSpaceOnUse">
<stop stop-color="#FFD1A7"/>
<stop offset="1" stop-color="#FF5A8B"/>
</linearGradient>
</defs>
</svg>
