<svg width="96" height="30" viewBox="0 0 96 30" fill="none" xmlns="http://www.w3.org/2000/svg">
<rect width="96" height="30" rx="4" fill="#161316"/>
<path d="M21.3553 11.7415C21.3655 11.8836 21.3655 12.0258 21.3655 12.1679C21.3655 16.5029 18.066 21.4978 12.0355 21.4978C10.1777 21.4978 8.45178 20.9597 7 20.0258C7.26397 20.0562 7.51775 20.0664 7.79187 20.0664C9.32484 20.0664 10.736 19.5486 11.8629 18.6654C10.4213 18.6349 9.21319 17.6907 8.79694 16.3912C9 16.4217 9.20303 16.442 9.41625 16.442C9.71066 16.442 10.0051 16.4014 10.2792 16.3303C8.77666 16.0257 7.64972 14.706 7.64972 13.1121V13.0715C8.08625 13.3151 8.59391 13.4674 9.13194 13.4877C8.24869 12.8988 7.67003 11.8938 7.67003 10.7567C7.67003 10.1476 7.83244 9.58921 8.11672 9.1019C9.73094 11.0917 12.1573 12.3912 14.8781 12.5334C14.8274 12.2897 14.7969 12.0359 14.7969 11.7821C14.7969 9.97499 16.2588 8.50293 18.0761 8.50293C19.0202 8.50293 19.873 8.89887 20.472 9.53846C21.2131 9.39634 21.9238 9.12221 22.5532 8.74659C22.3096 9.50802 21.7918 10.1476 21.1116 10.5537C21.7715 10.4826 22.4111 10.2999 22.9999 10.0461C22.5533 10.6958 21.9949 11.2745 21.3553 11.7415V11.7415Z" fill="url(#paint0_linear_265_18)"/>
<rect x="30" width="2" height="30" fill="#F2EEFF" fill-opacity="0.1"/>
<path d="M47.708 19C47.516 19 47.36 18.944 47.24 18.832C47.128 18.712 47.072 18.564 47.072 18.388V11.2H48.356V18.388C48.356 18.564 48.292 18.712 48.164 18.832C48.044 18.944 47.892 19 47.708 19ZM44.984 11.752C44.816 11.752 44.672 11.7 44.552 11.596C44.432 11.484 44.372 11.34 44.372 11.164C44.372 10.996 44.432 10.86 44.552 10.756C44.672 10.652 44.816 10.6 44.984 10.6H50.444C50.612 10.6 50.752 10.656 50.864 10.768C50.984 10.872 51.044 11.008 51.044 11.176C51.044 11.352 50.984 11.492 50.864 11.596C50.752 11.7 50.612 11.752 50.444 11.752H44.984ZM58.1843 12.628C58.3363 12.628 58.4683 12.688 58.5803 12.808C58.7003 12.92 58.7603 13.068 58.7603 13.252C58.7603 13.292 58.7563 13.332 58.7483 13.372C58.7403 13.412 58.7283 13.448 58.7123 13.48L56.8763 18.616C56.8283 18.752 56.7443 18.856 56.6243 18.928C56.5043 18.992 56.3803 19.016 56.2523 19C56.0203 18.984 55.8483 18.856 55.7363 18.616L54.3803 15.016L54.6563 15.04L53.4083 18.616C53.2963 18.856 53.1243 18.984 52.8923 19C52.7723 19.016 52.6483 18.992 52.5203 18.928C52.4003 18.856 52.3163 18.752 52.2683 18.616L50.4203 13.48C50.3883 13.408 50.3723 13.332 50.3723 13.252C50.3723 13.084 50.4243 12.94 50.5283 12.82C50.6403 12.692 50.7883 12.628 50.9723 12.628C51.1003 12.628 51.2123 12.66 51.3083 12.724C51.4123 12.788 51.4843 12.884 51.5243 13.012L53.0603 17.344L52.7843 17.32L54.0323 14.044C54.1363 13.796 54.3203 13.672 54.5843 13.672C54.7283 13.672 54.8403 13.704 54.9203 13.768C55.0003 13.832 55.0643 13.924 55.1123 14.044L56.3843 17.332L56.0603 17.368L57.6083 13.012C57.6883 12.756 57.8803 12.628 58.1843 12.628ZM61.1086 18.388C61.1086 18.564 61.0526 18.712 60.9406 18.832C60.8286 18.944 60.6846 19 60.5086 19C60.3406 19 60.1966 18.944 60.0766 18.832C59.9646 18.712 59.9086 18.564 59.9086 18.388V13.252C59.9086 13.076 59.9646 12.932 60.0766 12.82C60.1966 12.7 60.3406 12.64 60.5086 12.64C60.6846 12.64 60.8286 12.7 60.9406 12.82C61.0526 12.932 61.1086 13.076 61.1086 13.252V18.388ZM60.4966 11.848C60.2646 11.848 60.0966 11.808 59.9926 11.728C59.8886 11.64 59.8366 11.496 59.8366 11.296V11.104C59.8366 10.904 59.8926 10.764 60.0046 10.684C60.1166 10.604 60.2846 10.564 60.5086 10.564C60.7486 10.564 60.9206 10.608 61.0246 10.696C61.1286 10.776 61.1806 10.912 61.1806 11.104V11.296C61.1806 11.504 61.1246 11.648 61.0126 11.728C60.9086 11.808 60.7366 11.848 60.4966 11.848ZM62.6388 12.76H65.4588C65.6188 12.76 65.7508 12.816 65.8548 12.928C65.9668 13.032 66.0228 13.164 66.0228 13.324C66.0228 13.476 65.9668 13.604 65.8548 13.708C65.7508 13.812 65.6188 13.864 65.4588 13.864H62.6388C62.4788 13.864 62.3428 13.812 62.2308 13.708C62.1268 13.596 62.0748 13.464 62.0748 13.312C62.0748 13.152 62.1268 13.02 62.2308 12.916C62.3428 12.812 62.4788 12.76 62.6388 12.76ZM63.8988 11.2C64.0748 11.2 64.2188 11.26 64.3308 11.38C64.4428 11.492 64.4988 11.636 64.4988 11.812V17.38C64.4988 17.524 64.5228 17.64 64.5708 17.728C64.6188 17.816 64.6828 17.876 64.7628 17.908C64.8508 17.94 64.9388 17.956 65.0268 17.956C65.1148 17.956 65.1908 17.94 65.2548 17.908C65.3268 17.876 65.4108 17.86 65.5068 17.86C65.6028 17.86 65.6908 17.904 65.7708 17.992C65.8508 18.08 65.8908 18.2 65.8908 18.352C65.8908 18.544 65.7868 18.7 65.5788 18.82C65.3708 18.94 65.1468 19 64.9068 19C64.7708 19 64.6108 18.988 64.4268 18.964C64.2428 18.94 64.0628 18.88 63.8868 18.784C63.7188 18.688 63.5788 18.536 63.4668 18.328C63.3548 18.112 63.2988 17.812 63.2988 17.428V11.812C63.2988 11.636 63.3548 11.492 63.4668 11.38C63.5868 11.26 63.7308 11.2 63.8988 11.2ZM67.2677 12.76H70.0877C70.2477 12.76 70.3797 12.816 70.4837 12.928C70.5957 13.032 70.6517 13.164 70.6517 13.324C70.6517 13.476 70.5957 13.604 70.4837 13.708C70.3797 13.812 70.2477 13.864 70.0877 13.864H67.2677C67.1077 13.864 66.9717 13.812 66.8597 13.708C66.7557 13.596 66.7037 13.464 66.7037 13.312C66.7037 13.152 66.7557 13.02 66.8597 12.916C66.9717 12.812 67.1077 12.76 67.2677 12.76ZM68.5277 11.2C68.7037 11.2 68.8477 11.26 68.9597 11.38C69.0717 11.492 69.1277 11.636 69.1277 11.812V17.38C69.1277 17.524 69.1517 17.64 69.1997 17.728C69.2477 17.816 69.3117 17.876 69.3917 17.908C69.4797 17.94 69.5677 17.956 69.6557 17.956C69.7437 17.956 69.8197 17.94 69.8837 17.908C69.9557 17.876 70.0397 17.86 70.1357 17.86C70.2317 17.86 70.3197 17.904 70.3997 17.992C70.4797 18.08 70.5197 18.2 70.5197 18.352C70.5197 18.544 70.4157 18.7 70.2077 18.82C69.9997 18.94 69.7757 19 69.5357 19C69.3997 19 69.2397 18.988 69.0557 18.964C68.8717 18.94 68.6917 18.88 68.5157 18.784C68.3477 18.688 68.2077 18.536 68.0957 18.328C67.9837 18.112 67.9277 17.812 67.9277 17.428V11.812C67.9277 11.636 67.9837 11.492 68.0957 11.38C68.2157 11.26 68.3597 11.2 68.5277 11.2ZM74.862 19.12C74.198 19.12 73.622 18.984 73.134 18.712C72.646 18.432 72.266 18.052 71.994 17.572C71.73 17.084 71.598 16.528 71.598 15.904C71.598 15.2 71.738 14.6 72.018 14.104C72.306 13.6 72.678 13.216 73.134 12.952C73.59 12.68 74.074 12.544 74.586 12.544C74.978 12.544 75.35 12.624 75.702 12.784C76.054 12.936 76.366 13.152 76.638 13.432C76.918 13.704 77.138 14.028 77.298 14.404C77.458 14.772 77.542 15.176 77.55 15.616C77.542 15.776 77.478 15.908 77.358 16.012C77.238 16.116 77.098 16.168 76.938 16.168H72.27L71.982 15.148H76.494L76.266 15.364V15.064C76.25 14.784 76.158 14.54 75.99 14.332C75.822 14.116 75.614 13.952 75.366 13.84C75.118 13.72 74.858 13.66 74.586 13.66C74.346 13.66 74.114 13.7 73.89 13.78C73.674 13.852 73.478 13.972 73.302 14.14C73.134 14.308 72.998 14.532 72.894 14.812C72.798 15.084 72.75 15.424 72.75 15.832C72.75 16.272 72.842 16.656 73.026 16.984C73.21 17.312 73.458 17.568 73.77 17.752C74.082 17.928 74.426 18.016 74.802 18.016C75.098 18.016 75.342 17.988 75.534 17.932C75.726 17.868 75.886 17.792 76.014 17.704C76.142 17.616 76.254 17.532 76.35 17.452C76.47 17.38 76.59 17.344 76.71 17.344C76.854 17.344 76.974 17.396 77.07 17.5C77.166 17.596 77.214 17.712 77.214 17.848C77.214 18.024 77.126 18.184 76.95 18.328C76.734 18.536 76.434 18.72 76.05 18.88C75.674 19.04 75.278 19.12 74.862 19.12ZM79.5064 19C79.3304 19 79.1864 18.944 79.0744 18.832C78.9624 18.712 78.9064 18.564 78.9064 18.388V13.3C78.9064 13.124 78.9624 12.98 79.0744 12.868C79.1864 12.748 79.3304 12.688 79.5064 12.688C79.6744 12.688 79.8144 12.748 79.9264 12.868C80.0464 12.98 80.1064 13.124 80.1064 13.3V14.644L79.9864 14.128C80.0504 13.904 80.1464 13.696 80.2744 13.504C80.4104 13.312 80.5704 13.144 80.7544 13C80.9384 12.856 81.1424 12.744 81.3664 12.664C81.5984 12.584 81.8384 12.544 82.0864 12.544C82.2944 12.544 82.4744 12.6 82.6264 12.712C82.7784 12.824 82.8544 12.964 82.8544 13.132C82.8544 13.348 82.7984 13.508 82.6864 13.612C82.5744 13.708 82.4504 13.756 82.3144 13.756C82.1944 13.756 82.0784 13.732 81.9664 13.684C81.8544 13.628 81.7224 13.6 81.5704 13.6C81.4024 13.6 81.2304 13.644 81.0544 13.732C80.8784 13.82 80.7184 13.952 80.5744 14.128C80.4304 14.296 80.3144 14.496 80.2264 14.728C80.1464 14.96 80.1064 15.22 80.1064 15.508V18.388C80.1064 18.564 80.0464 18.712 79.9264 18.832C79.8144 18.944 79.6744 19 79.5064 19Z" fill="#F2EEFF"/>
<defs>
<linearGradient id="paint0_linear_265_18" x1="7" y1="21.4978" x2="25.3048" y2="14.8367" gradientUnits="userSpaceOnUse">
<stop stop-color="#FFD1A7"/>
<stop offset="1" stop-color="#FF5A8B"/>
</linearGradient>
</defs>
</svg>
