<svg width="65" height="20" viewBox="0 0 65 20" fill="none" xmlns="http://www.w3.org/2000/svg">
<rect width="65" height="20" rx="4" fill="#161316"/>
<path d="M13.9721 7.96355C13.9784 8.05238 13.9784 8.14123 13.9784 8.23006C13.9784 10.9394 11.9162 14.0613 8.14721 14.0613C6.98603 14.0613 5.90736 13.725 5 13.1412C5.16498 13.1603 5.32359 13.1666 5.49492 13.1666C6.45303 13.1666 7.33502 12.843 8.03934 12.291C7.13832 12.2719 6.38324 11.6818 6.12309 10.8696C6.25 10.8887 6.37689 10.9014 6.51016 10.9014C6.69416 10.9014 6.87818 10.876 7.04949 10.8316C6.11041 10.6412 5.40607 9.81635 5.40607 8.82016V8.79479C5.67891 8.94707 5.99619 9.04225 6.33246 9.05492C5.78043 8.68689 5.41877 8.05873 5.41877 7.34807C5.41877 6.96736 5.52027 6.61838 5.69795 6.31381C6.70684 7.55746 8.22334 8.36963 9.92383 8.45848C9.89211 8.30619 9.87307 8.14758 9.87307 7.98895C9.87307 6.85949 10.7868 5.93945 11.9226 5.93945C12.5127 5.93945 13.0456 6.18691 13.42 6.58666C13.8832 6.49783 14.3274 6.3265 14.7208 6.09174C14.5685 6.56764 14.2449 6.96738 13.8198 7.22117C14.2322 7.17678 14.632 7.06254 15 6.90393C14.7208 7.31 14.3718 7.67166 13.9721 7.96355V7.96355Z" fill="url(#paint0_linear_265_18)"/>
<rect x="20" width="2" height="20" fill="#F2EEFF" fill-opacity="0.1"/>
<path d="M32.472 13C32.344 13 32.24 12.9627 32.16 12.888C32.0853 12.808 32.048 12.7093 32.048 12.592V7.8H32.904V12.592C32.904 12.7093 32.8613 12.808 32.776 12.888C32.696 12.9627 32.5947 13 32.472 13ZM30.656 8.168C30.544 8.168 30.448 8.13333 30.368 8.064C30.288 7.98933 30.248 7.89333 30.248 7.776C30.248 7.664 30.288 7.57333 30.368 7.504C30.448 7.43467 30.544 7.4 30.656 7.4H34.296C34.408 7.4 34.5013 7.43733 34.576 7.512C34.656 7.58133 34.696 7.672 34.696 7.784C34.696 7.90133 34.656 7.99467 34.576 8.064C34.5013 8.13333 34.408 8.168 34.296 8.168H30.656ZM39.4562 8.752C39.5575 8.752 39.6455 8.792 39.7202 8.872C39.8002 8.94667 39.8402 9.04533 39.8402 9.168C39.8402 9.19467 39.8375 9.22133 39.8322 9.248C39.8269 9.27467 39.8189 9.29867 39.8082 9.32L38.5842 12.744C38.5522 12.8347 38.4962 12.904 38.4162 12.952C38.3362 12.9947 38.2535 13.0107 38.1682 13C38.0135 12.9893 37.8989 12.904 37.8242 12.744L36.9202 10.344L37.1042 10.36L36.2722 12.744C36.1975 12.904 36.0829 12.9893 35.9282 13C35.8482 13.0107 35.7655 12.9947 35.6802 12.952C35.6002 12.904 35.5442 12.8347 35.5122 12.744L34.2802 9.32C34.2589 9.272 34.2482 9.22133 34.2482 9.168C34.2482 9.056 34.2829 8.96 34.3522 8.88C34.4269 8.79467 34.5255 8.752 34.6482 8.752C34.7335 8.752 34.8082 8.77333 34.8722 8.816C34.9415 8.85867 34.9895 8.92267 35.0162 9.008L36.0402 11.896L35.8562 11.88L36.6882 9.696C36.7575 9.53067 36.8802 9.448 37.0562 9.448C37.1522 9.448 37.2269 9.46933 37.2802 9.512C37.3335 9.55467 37.3762 9.616 37.4082 9.696L38.2562 11.888L38.0402 11.912L39.0722 9.008C39.1255 8.83733 39.2535 8.752 39.4562 8.752ZM41.4058 12.592C41.4058 12.7093 41.3684 12.808 41.2938 12.888C41.2191 12.9627 41.1231 13 41.0058 13C40.8938 13 40.7978 12.9627 40.7178 12.888C40.6431 12.808 40.6058 12.7093 40.6058 12.592V9.168C40.6058 9.05067 40.6431 8.95467 40.7178 8.88C40.7978 8.8 40.8938 8.76 41.0058 8.76C41.1231 8.76 41.2191 8.8 41.2938 8.88C41.3684 8.95467 41.4058 9.05067 41.4058 9.168V12.592ZM40.9978 8.232C40.8431 8.232 40.7311 8.20533 40.6618 8.152C40.5924 8.09333 40.5578 7.99733 40.5578 7.864V7.736C40.5578 7.60267 40.5951 7.50933 40.6698 7.456C40.7444 7.40267 40.8564 7.376 41.0058 7.376C41.1658 7.376 41.2804 7.40533 41.3498 7.464C41.4191 7.51733 41.4538 7.608 41.4538 7.736V7.864C41.4538 8.00267 41.4164 8.09867 41.3418 8.152C41.2724 8.20533 41.1578 8.232 40.9978 8.232ZM42.4259 8.84H44.3059C44.4125 8.84 44.5005 8.87733 44.5699 8.952C44.6445 9.02133 44.6819 9.10933 44.6819 9.216C44.6819 9.31733 44.6445 9.40267 44.5699 9.472C44.5005 9.54133 44.4125 9.576 44.3059 9.576H42.4259C42.3192 9.576 42.2285 9.54133 42.1539 9.472C42.0845 9.39733 42.0499 9.30933 42.0499 9.208C42.0499 9.10133 42.0845 9.01333 42.1539 8.944C42.2285 8.87467 42.3192 8.84 42.4259 8.84ZM43.2659 7.8C43.3832 7.8 43.4792 7.84 43.5539 7.92C43.6285 7.99467 43.6659 8.09067 43.6659 8.208V11.92C43.6659 12.016 43.6819 12.0933 43.7139 12.152C43.7459 12.2107 43.7885 12.2507 43.8419 12.272C43.9005 12.2933 43.9592 12.304 44.0179 12.304C44.0765 12.304 44.1272 12.2933 44.1699 12.272C44.2179 12.2507 44.2739 12.24 44.3379 12.24C44.4019 12.24 44.4605 12.2693 44.5139 12.328C44.5672 12.3867 44.5939 12.4667 44.5939 12.568C44.5939 12.696 44.5245 12.8 44.3859 12.88C44.2472 12.96 44.0979 13 43.9379 13C43.8472 13 43.7405 12.992 43.6179 12.976C43.4952 12.96 43.3752 12.92 43.2579 12.856C43.1459 12.792 43.0525 12.6907 42.9779 12.552C42.9032 12.408 42.8659 12.208 42.8659 11.952V8.208C42.8659 8.09067 42.9032 7.99467 42.9779 7.92C43.0579 7.84 43.1539 7.8 43.2659 7.8ZM45.5118 8.84H47.3918C47.4985 8.84 47.5865 8.87733 47.6558 8.952C47.7305 9.02133 47.7678 9.10933 47.7678 9.216C47.7678 9.31733 47.7305 9.40267 47.6558 9.472C47.5865 9.54133 47.4985 9.576 47.3918 9.576H45.5118C45.4051 9.576 45.3145 9.54133 45.2398 9.472C45.1705 9.39733 45.1358 9.30933 45.1358 9.208C45.1358 9.10133 45.1705 9.01333 45.2398 8.944C45.3145 8.87467 45.4051 8.84 45.5118 8.84ZM46.3518 7.8C46.4691 7.8 46.5651 7.84 46.6398 7.92C46.7145 7.99467 46.7518 8.09067 46.7518 8.208V11.92C46.7518 12.016 46.7678 12.0933 46.7998 12.152C46.8318 12.2107 46.8745 12.2507 46.9278 12.272C46.9865 12.2933 47.0451 12.304 47.1038 12.304C47.1625 12.304 47.2131 12.2933 47.2558 12.272C47.3038 12.2507 47.3598 12.24 47.4238 12.24C47.4878 12.24 47.5465 12.2693 47.5998 12.328C47.6531 12.3867 47.6798 12.4667 47.6798 12.568C47.6798 12.696 47.6105 12.8 47.4718 12.88C47.3331 12.96 47.1838 13 47.0238 13C46.9331 13 46.8265 12.992 46.7038 12.976C46.5811 12.96 46.4611 12.92 46.3438 12.856C46.2318 12.792 46.1385 12.6907 46.0638 12.552C45.9891 12.408 45.9518 12.208 45.9518 11.952V8.208C45.9518 8.09067 45.9891 7.99467 46.0638 7.92C46.1438 7.84 46.2398 7.8 46.3518 7.8ZM50.5747 13.08C50.132 13.08 49.748 12.9893 49.4227 12.808C49.0974 12.6213 48.844 12.368 48.6627 12.048C48.4867 11.7227 48.3987 11.352 48.3987 10.936C48.3987 10.4667 48.492 10.0667 48.6787 9.736C48.8707 9.4 49.1187 9.144 49.4227 8.968C49.7267 8.78667 50.0494 8.696 50.3907 8.696C50.652 8.696 50.9 8.74933 51.1347 8.856C51.3694 8.95733 51.5774 9.10133 51.7587 9.288C51.9454 9.46933 52.092 9.68533 52.1987 9.936C52.3054 10.1813 52.3614 10.4507 52.3667 10.744C52.3614 10.8507 52.3187 10.9387 52.2387 11.008C52.1587 11.0773 52.0654 11.112 51.9587 11.112H48.8467L48.6547 10.432H51.6627L51.5107 10.576V10.376C51.5 10.1893 51.4387 10.0267 51.3267 9.888C51.2147 9.744 51.076 9.63467 50.9107 9.56C50.7454 9.48 50.572 9.44 50.3907 9.44C50.2307 9.44 50.076 9.46667 49.9267 9.52C49.7827 9.568 49.652 9.648 49.5347 9.76C49.4227 9.872 49.332 10.0213 49.2627 10.208C49.1987 10.3893 49.1667 10.616 49.1667 10.888C49.1667 11.1813 49.228 11.4373 49.3507 11.656C49.4734 11.8747 49.6387 12.0453 49.8467 12.168C50.0547 12.2853 50.284 12.344 50.5347 12.344C50.732 12.344 50.8947 12.3253 51.0227 12.288C51.1507 12.2453 51.2574 12.1947 51.3427 12.136C51.428 12.0773 51.5027 12.0213 51.5667 11.968C51.6467 11.92 51.7267 11.896 51.8067 11.896C51.9027 11.896 51.9827 11.9307 52.0467 12C52.1107 12.064 52.1427 12.1413 52.1427 12.232C52.1427 12.3493 52.084 12.456 51.9667 12.552C51.8227 12.6907 51.6227 12.8133 51.3667 12.92C51.116 13.0267 50.852 13.08 50.5747 13.08ZM53.6709 13C53.5536 13 53.4576 12.9627 53.3829 12.888C53.3083 12.808 53.2709 12.7093 53.2709 12.592V9.2C53.2709 9.08267 53.3083 8.98667 53.3829 8.912C53.4576 8.832 53.5536 8.792 53.6709 8.792C53.7829 8.792 53.8763 8.832 53.9509 8.912C54.0309 8.98667 54.0709 9.08267 54.0709 9.2V10.096L53.9909 9.752C54.0336 9.60267 54.0976 9.464 54.1829 9.336C54.2736 9.208 54.3803 9.096 54.5029 9C54.6256 8.904 54.7616 8.82933 54.9109 8.776C55.0656 8.72267 55.2256 8.696 55.3909 8.696C55.5296 8.696 55.6496 8.73333 55.7509 8.808C55.8523 8.88267 55.9029 8.976 55.9029 9.088C55.9029 9.232 55.8656 9.33867 55.7909 9.408C55.7163 9.472 55.6336 9.504 55.5429 9.504C55.4629 9.504 55.3856 9.488 55.3109 9.456C55.2363 9.41867 55.1483 9.4 55.0469 9.4C54.9349 9.4 54.8203 9.42933 54.7029 9.488C54.5856 9.54667 54.4789 9.63467 54.3829 9.752C54.2869 9.864 54.2096 9.99733 54.1509 10.152C54.0976 10.3067 54.0709 10.48 54.0709 10.672V12.592C54.0709 12.7093 54.0309 12.808 53.9509 12.888C53.8763 12.9627 53.7829 13 53.6709 13Z" fill="#F2EEFF"/>
<defs>
<linearGradient id="paint0_linear_265_18" x1="5" y1="14.0613" x2="16.4405" y2="9.89804" gradientUnits="userSpaceOnUse">
<stop stop-color="#FFD1A7"/>
<stop offset="1" stop-color="#FF5A8B"/>
</linearGradient>
</defs>
</svg>
