<svg width="150" height="28" viewBox="0 0 150 28" fill="none" xmlns="http://www.w3.org/2000/svg">
<path d="M4.408 25.164C4.408 25.692 4.228 26.136 3.868 26.496C3.532 26.832 3.112 27 2.608 27C2.104 27 1.672 26.832 1.312 26.496C0.976 26.136 0.808 25.692 0.808 25.164V2.196C0.808 1.668 0.988 1.236 1.348 0.899999C1.708 0.539999 2.14 0.36 2.644 0.36C3.172 0.36 3.592 0.539999 3.904 0.899999C4.24 1.236 4.408 1.668 4.408 2.196V25.164ZM13.1501 25.164C13.1501 25.692 12.9821 26.136 12.6461 26.496C12.3101 26.832 11.8781 27 11.3501 27C10.8461 27 10.4141 26.832 10.0541 26.496C9.71809 26.136 9.55009 25.692 9.55009 25.164V9.756C9.55009 9.228 9.71809 8.796 10.0541 8.46C10.4141 8.1 10.8461 7.92 11.3501 7.92C11.8781 7.92 12.3101 8.1 12.6461 8.46C12.9821 8.796 13.1501 9.228 13.1501 9.756V25.164ZM11.3141 5.544C10.6181 5.544 10.1141 5.424 9.80209 5.184C9.49009 4.92 9.33409 4.488 9.33409 3.888V3.312C9.33409 2.712 9.50209 2.292 9.83809 2.052C10.1741 1.812 10.6781 1.692 11.3501 1.692C12.0701 1.692 12.5861 1.824 12.8981 2.088C13.2101 2.328 13.3661 2.736 13.3661 3.312V3.888C13.3661 4.512 13.1981 4.944 12.8621 5.184C12.5501 5.424 12.0341 5.544 11.3141 5.544ZM27.5327 7.632C29.2127 7.632 30.7007 8.052 31.9967 8.892C33.3167 9.732 34.3607 10.896 35.1287 12.384C35.8967 13.848 36.2807 15.54 36.2807 17.46C36.2807 19.38 35.8967 21.084 35.1287 22.572C34.3607 24.06 33.3287 25.236 32.0327 26.1C30.7367 26.94 29.2727 27.36 27.6407 27.36C26.7287 27.36 25.8647 27.216 25.0487 26.928C24.2327 26.616 23.5127 26.232 22.8887 25.776C22.2647 25.296 21.7487 24.792 21.3407 24.264C20.9567 23.736 20.7167 23.244 20.6207 22.788L21.5927 22.32V25.452C21.5927 25.956 21.4127 26.388 21.0527 26.748C20.7167 27.084 20.2967 27.252 19.7927 27.252C19.2647 27.252 18.8327 27.084 18.4967 26.748C18.1607 26.412 17.9927 25.98 17.9927 25.452V2.196C17.9927 1.668 18.1607 1.236 18.4967 0.899999C18.8327 0.539999 19.2647 0.36 19.7927 0.36C20.2967 0.36 20.7167 0.539999 21.0527 0.899999C21.4127 1.236 21.5927 1.668 21.5927 2.196V12.312L21.0167 11.988C21.0887 11.532 21.3167 11.064 21.7007 10.584C22.0847 10.08 22.5647 9.6 23.1407 9.144C23.7407 8.688 24.4127 8.328 25.1567 8.064C25.9247 7.776 26.7167 7.632 27.5327 7.632ZM27.1367 10.944C25.9847 10.944 24.9767 11.232 24.1127 11.808C23.2727 12.384 22.6127 13.164 22.1327 14.148C21.6527 15.108 21.4127 16.212 21.4127 17.46C21.4127 18.708 21.6527 19.836 22.1327 20.844C22.6127 21.828 23.2727 22.608 24.1127 23.184C24.9767 23.76 25.9847 24.048 27.1367 24.048C28.2647 24.048 29.2487 23.76 30.0887 23.184C30.9287 22.608 31.5887 21.816 32.0687 20.808C32.5727 19.8 32.8247 18.684 32.8247 17.46C32.8247 16.212 32.5727 15.108 32.0687 14.148C31.5887 13.164 30.9287 12.384 30.0887 11.808C29.2487 11.232 28.2647 10.944 27.1367 10.944ZM42.152 27C41.624 27 41.192 26.832 40.856 26.496C40.52 26.136 40.352 25.692 40.352 25.164V9.9C40.352 9.372 40.52 8.94 40.856 8.604C41.192 8.244 41.624 8.064 42.152 8.064C42.656 8.064 43.076 8.244 43.412 8.604C43.772 8.94 43.952 9.372 43.952 9.9V13.932L43.592 12.384C43.784 11.712 44.072 11.088 44.456 10.512C44.864 9.936 45.344 9.432 45.896 9C46.448 8.568 47.06 8.232 47.732 7.992C48.428 7.752 49.148 7.632 49.892 7.632C50.516 7.632 51.056 7.8 51.512 8.136C51.968 8.472 52.196 8.892 52.196 9.396C52.196 10.044 52.028 10.524 51.692 10.836C51.356 11.124 50.984 11.268 50.576 11.268C50.216 11.268 49.868 11.196 49.532 11.052C49.196 10.884 48.8 10.8 48.344 10.8C47.84 10.8 47.324 10.932 46.796 11.196C46.268 11.46 45.788 11.856 45.356 12.384C44.924 12.888 44.576 13.488 44.312 14.184C44.072 14.88 43.952 15.66 43.952 16.524V25.164C43.952 25.692 43.772 26.136 43.412 26.496C43.076 26.832 42.656 27 42.152 27ZM63.4103 27.36C61.4183 27.36 59.6903 26.952 58.2263 26.136C56.7623 25.296 55.6223 24.156 54.8063 22.716C54.0143 21.252 53.6183 19.584 53.6183 17.712C53.6183 15.6 54.0383 13.8 54.8783 12.312C55.7423 10.8 56.8583 9.648 58.2263 8.856C59.5943 8.04 61.0463 7.632 62.5823 7.632C63.7583 7.632 64.8743 7.872 65.9303 8.352C66.9863 8.808 67.9223 9.456 68.7383 10.296C69.5783 11.112 70.2383 12.084 70.7183 13.212C71.1983 14.316 71.4503 15.528 71.4743 16.848C71.4503 17.328 71.2583 17.724 70.8983 18.036C70.5383 18.348 70.1183 18.504 69.6383 18.504H55.6343L54.7703 15.444H68.3063L67.6223 16.092V15.192C67.5743 14.352 67.2983 13.62 66.7943 12.996C66.2903 12.348 65.6663 11.856 64.9223 11.52C64.1783 11.16 63.3983 10.98 62.5823 10.98C61.8623 10.98 61.1663 11.1 60.4943 11.34C59.8463 11.556 59.2583 11.916 58.7303 12.42C58.2263 12.924 57.8183 13.596 57.5063 14.436C57.2183 15.252 57.0743 16.272 57.0743 17.496C57.0743 18.816 57.3503 19.968 57.9023 20.952C58.4543 21.936 59.1983 22.704 60.1343 23.256C61.0703 23.784 62.1023 24.048 63.2303 24.048C64.1183 24.048 64.8503 23.964 65.4263 23.796C66.0023 23.604 66.4823 23.376 66.8663 23.112C67.2503 22.848 67.5863 22.596 67.8743 22.356C68.2343 22.14 68.5943 22.032 68.9543 22.032C69.3863 22.032 69.7463 22.188 70.0343 22.5C70.3223 22.788 70.4663 23.136 70.4663 23.544C70.4663 24.072 70.2023 24.552 69.6743 24.984C69.0263 25.608 68.1263 26.16 66.9743 26.64C65.8463 27.12 64.6583 27.36 63.4103 27.36Z" fill="#F2EEFF"/>
<path d="M4.408 25.164C4.408 25.692 4.228 26.136 3.868 26.496C3.532 26.832 3.112 27 2.608 27C2.104 27 1.672 26.832 1.312 26.496C0.976 26.136 0.808 25.692 0.808 25.164V2.196C0.808 1.668 0.988 1.236 1.348 0.899999C1.708 0.539999 2.14 0.36 2.644 0.36C3.172 0.36 3.592 0.539999 3.904 0.899999C4.24 1.236 4.408 1.668 4.408 2.196V25.164ZM13.1501 25.164C13.1501 25.692 12.9821 26.136 12.6461 26.496C12.3101 26.832 11.8781 27 11.3501 27C10.8461 27 10.4141 26.832 10.0541 26.496C9.71809 26.136 9.55009 25.692 9.55009 25.164V9.756C9.55009 9.228 9.71809 8.796 10.0541 8.46C10.4141 8.1 10.8461 7.92 11.3501 7.92C11.8781 7.92 12.3101 8.1 12.6461 8.46C12.9821 8.796 13.1501 9.228 13.1501 9.756V25.164ZM11.3141 5.544C10.6181 5.544 10.1141 5.424 9.80209 5.184C9.49009 4.92 9.33409 4.488 9.33409 3.888V3.312C9.33409 2.712 9.50209 2.292 9.83809 2.052C10.1741 1.812 10.6781 1.692 11.3501 1.692C12.0701 1.692 12.5861 1.824 12.8981 2.088C13.2101 2.328 13.3661 2.736 13.3661 3.312V3.888C13.3661 4.512 13.1981 4.944 12.8621 5.184C12.5501 5.424 12.0341 5.544 11.3141 5.544ZM27.5327 7.632C29.2127 7.632 30.7007 8.052 31.9967 8.892C33.3167 9.732 34.3607 10.896 35.1287 12.384C35.8967 13.848 36.2807 15.54 36.2807 17.46C36.2807 19.38 35.8967 21.084 35.1287 22.572C34.3607 24.06 33.3287 25.236 32.0327 26.1C30.7367 26.94 29.2727 27.36 27.6407 27.36C26.7287 27.36 25.8647 27.216 25.0487 26.928C24.2327 26.616 23.5127 26.232 22.8887 25.776C22.2647 25.296 21.7487 24.792 21.3407 24.264C20.9567 23.736 20.7167 23.244 20.6207 22.788L21.5927 22.32V25.452C21.5927 25.956 21.4127 26.388 21.0527 26.748C20.7167 27.084 20.2967 27.252 19.7927 27.252C19.2647 27.252 18.8327 27.084 18.4967 26.748C18.1607 26.412 17.9927 25.98 17.9927 25.452V2.196C17.9927 1.668 18.1607 1.236 18.4967 0.899999C18.8327 0.539999 19.2647 0.36 19.7927 0.36C20.2967 0.36 20.7167 0.539999 21.0527 0.899999C21.4127 1.236 21.5927 1.668 21.5927 2.196V12.312L21.0167 11.988C21.0887 11.532 21.3167 11.064 21.7007 10.584C22.0847 10.08 22.5647 9.6 23.1407 9.144C23.7407 8.688 24.4127 8.328 25.1567 8.064C25.9247 7.776 26.7167 7.632 27.5327 7.632ZM27.1367 10.944C25.9847 10.944 24.9767 11.232 24.1127 11.808C23.2727 12.384 22.6127 13.164 22.1327 14.148C21.6527 15.108 21.4127 16.212 21.4127 17.46C21.4127 18.708 21.6527 19.836 22.1327 20.844C22.6127 21.828 23.2727 22.608 24.1127 23.184C24.9767 23.76 25.9847 24.048 27.1367 24.048C28.2647 24.048 29.2487 23.76 30.0887 23.184C30.9287 22.608 31.5887 21.816 32.0687 20.808C32.5727 19.8 32.8247 18.684 32.8247 17.46C32.8247 16.212 32.5727 15.108 32.0687 14.148C31.5887 13.164 30.9287 12.384 30.0887 11.808C29.2487 11.232 28.2647 10.944 27.1367 10.944ZM42.152 27C41.624 27 41.192 26.832 40.856 26.496C40.52 26.136 40.352 25.692 40.352 25.164V9.9C40.352 9.372 40.52 8.94 40.856 8.604C41.192 8.244 41.624 8.064 42.152 8.064C42.656 8.064 43.076 8.244 43.412 8.604C43.772 8.94 43.952 9.372 43.952 9.9V13.932L43.592 12.384C43.784 11.712 44.072 11.088 44.456 10.512C44.864 9.936 45.344 9.432 45.896 9C46.448 8.568 47.06 8.232 47.732 7.992C48.428 7.752 49.148 7.632 49.892 7.632C50.516 7.632 51.056 7.8 51.512 8.136C51.968 8.472 52.196 8.892 52.196 9.396C52.196 10.044 52.028 10.524 51.692 10.836C51.356 11.124 50.984 11.268 50.576 11.268C50.216 11.268 49.868 11.196 49.532 11.052C49.196 10.884 48.8 10.8 48.344 10.8C47.84 10.8 47.324 10.932 46.796 11.196C46.268 11.46 45.788 11.856 45.356 12.384C44.924 12.888 44.576 13.488 44.312 14.184C44.072 14.88 43.952 15.66 43.952 16.524V25.164C43.952 25.692 43.772 26.136 43.412 26.496C43.076 26.832 42.656 27 42.152 27ZM63.4103 27.36C61.4183 27.36 59.6903 26.952 58.2263 26.136C56.7623 25.296 55.6223 24.156 54.8063 22.716C54.0143 21.252 53.6183 19.584 53.6183 17.712C53.6183 15.6 54.0383 13.8 54.8783 12.312C55.7423 10.8 56.8583 9.648 58.2263 8.856C59.5943 8.04 61.0463 7.632 62.5823 7.632C63.7583 7.632 64.8743 7.872 65.9303 8.352C66.9863 8.808 67.9223 9.456 68.7383 10.296C69.5783 11.112 70.2383 12.084 70.7183 13.212C71.1983 14.316 71.4503 15.528 71.4743 16.848C71.4503 17.328 71.2583 17.724 70.8983 18.036C70.5383 18.348 70.1183 18.504 69.6383 18.504H55.6343L54.7703 15.444H68.3063L67.6223 16.092V15.192C67.5743 14.352 67.2983 13.62 66.7943 12.996C66.2903 12.348 65.6663 11.856 64.9223 11.52C64.1783 11.16 63.3983 10.98 62.5823 10.98C61.8623 10.98 61.1663 11.1 60.4943 11.34C59.8463 11.556 59.2583 11.916 58.7303 12.42C58.2263 12.924 57.8183 13.596 57.5063 14.436C57.2183 15.252 57.0743 16.272 57.0743 17.496C57.0743 18.816 57.3503 19.968 57.9023 20.952C58.4543 21.936 59.1983 22.704 60.1343 23.256C61.0703 23.784 62.1023 24.048 63.2303 24.048C64.1183 24.048 64.8503 23.964 65.4263 23.796C66.0023 23.604 66.4823 23.376 66.8663 23.112C67.2503 22.848 67.5863 22.596 67.8743 22.356C68.2343 22.14 68.5943 22.032 68.9543 22.032C69.3863 22.032 69.7463 22.188 70.0343 22.5C70.3223 22.788 70.4663 23.136 70.4663 23.544C70.4663 24.072 70.2023 24.552 69.6743 24.984C69.0263 25.608 68.1263 26.16 66.9743 26.64C65.8463 27.12 64.6583 27.36 63.4103 27.36Z" fill="url(#paint0_linear_5_265)"/>
<path d="M75.2914 8.28H83.7514C84.2314 8.28 84.6274 8.448 84.9394 8.784C85.2754 9.096 85.4434 9.492 85.4434 9.972C85.4434 10.428 85.2754 10.812 84.9394 11.124C84.6274 11.436 84.2314 11.592 83.7514 11.592H75.2914C74.8114 11.592 74.4034 11.436 74.0674 11.124C73.7554 10.788 73.5994 10.392 73.5994 9.936C73.5994 9.456 73.7554 9.06 74.0674 8.748C74.4034 8.436 74.8114 8.28 75.2914 8.28ZM79.0714 3.6C79.5994 3.6 80.0314 3.78 80.3674 4.14C80.7034 4.476 80.8714 4.908 80.8714 5.436V22.14C80.8714 22.572 80.9434 22.92 81.0874 23.184C81.2314 23.448 81.4234 23.628 81.6634 23.724C81.9274 23.82 82.1914 23.868 82.4554 23.868C82.7194 23.868 82.9474 23.82 83.1394 23.724C83.3554 23.628 83.6074 23.58 83.8954 23.58C84.1834 23.58 84.4474 23.712 84.6874 23.976C84.9274 24.24 85.0474 24.6 85.0474 25.056C85.0474 25.632 84.7354 26.1 84.1114 26.46C83.4874 26.82 82.8154 27 82.0954 27C81.6874 27 81.2074 26.964 80.6554 26.892C80.1034 26.82 79.5634 26.64 79.0354 26.352C78.5314 26.064 78.1114 25.608 77.7754 24.984C77.4394 24.336 77.2714 23.436 77.2714 22.284V5.436C77.2714 4.908 77.4394 4.476 77.7754 4.14C78.1354 3.78 78.5674 3.6 79.0714 3.6ZM103.542 8.064C104.046 8.064 104.466 8.244 104.802 8.604C105.162 8.94 105.342 9.372 105.342 9.9V19.368C105.342 21.864 104.646 23.82 103.254 25.236C101.862 26.628 99.8942 27.324 97.3502 27.324C94.8302 27.324 92.8742 26.628 91.4822 25.236C90.1142 23.82 89.4302 21.864 89.4302 19.368V9.9C89.4302 9.372 89.5982 8.94 89.9342 8.604C90.2702 8.244 90.7022 8.064 91.2302 8.064C91.7342 8.064 92.1542 8.244 92.4902 8.604C92.8502 8.94 93.0302 9.372 93.0302 9.9V19.368C93.0302 20.928 93.3902 22.092 94.1102 22.86C94.8542 23.628 95.9342 24.012 97.3502 24.012C98.7902 24.012 99.8822 23.628 100.626 22.86C101.37 22.092 101.742 20.928 101.742 19.368V9.9C101.742 9.372 101.91 8.94 102.246 8.604C102.582 8.244 103.014 8.064 103.542 8.064ZM119.888 7.632C121.568 7.632 123.056 8.052 124.352 8.892C125.672 9.732 126.716 10.896 127.484 12.384C128.252 13.848 128.636 15.54 128.636 17.46C128.636 19.38 128.252 21.084 127.484 22.572C126.716 24.06 125.684 25.236 124.388 26.1C123.092 26.94 121.628 27.36 119.996 27.36C119.084 27.36 118.22 27.216 117.404 26.928C116.588 26.616 115.868 26.232 115.244 25.776C114.62 25.296 114.104 24.792 113.696 24.264C113.312 23.736 113.072 23.244 112.976 22.788L113.948 22.32V25.452C113.948 25.956 113.768 26.388 113.408 26.748C113.072 27.084 112.652 27.252 112.148 27.252C111.62 27.252 111.188 27.084 110.852 26.748C110.516 26.412 110.348 25.98 110.348 25.452V2.196C110.348 1.668 110.516 1.236 110.852 0.899999C111.188 0.539999 111.62 0.36 112.148 0.36C112.652 0.36 113.072 0.539999 113.408 0.899999C113.768 1.236 113.948 1.668 113.948 2.196V12.312L113.372 11.988C113.444 11.532 113.672 11.064 114.056 10.584C114.44 10.08 114.92 9.6 115.496 9.144C116.096 8.688 116.768 8.328 117.512 8.064C118.28 7.776 119.072 7.632 119.888 7.632ZM119.492 10.944C118.34 10.944 117.332 11.232 116.468 11.808C115.628 12.384 114.968 13.164 114.488 14.148C114.008 15.108 113.768 16.212 113.768 17.46C113.768 18.708 114.008 19.836 114.488 20.844C114.968 21.828 115.628 22.608 116.468 23.184C117.332 23.76 118.34 24.048 119.492 24.048C120.62 24.048 121.604 23.76 122.444 23.184C123.284 22.608 123.944 21.816 124.424 20.808C124.928 19.8 125.18 18.684 125.18 17.46C125.18 16.212 124.928 15.108 124.424 14.148C123.944 13.164 123.284 12.384 122.444 11.808C121.604 11.232 120.62 10.944 119.492 10.944ZM141.528 27.36C139.536 27.36 137.808 26.952 136.344 26.136C134.88 25.296 133.74 24.156 132.924 22.716C132.132 21.252 131.736 19.584 131.736 17.712C131.736 15.6 132.156 13.8 132.996 12.312C133.86 10.8 134.976 9.648 136.344 8.856C137.712 8.04 139.164 7.632 140.7 7.632C141.876 7.632 142.992 7.872 144.048 8.352C145.104 8.808 146.04 9.456 146.856 10.296C147.696 11.112 148.356 12.084 148.836 13.212C149.316 14.316 149.568 15.528 149.592 16.848C149.568 17.328 149.376 17.724 149.016 18.036C148.656 18.348 148.236 18.504 147.756 18.504H133.752L132.888 15.444H146.424L145.74 16.092V15.192C145.692 14.352 145.416 13.62 144.912 12.996C144.408 12.348 143.784 11.856 143.04 11.52C142.296 11.16 141.516 10.98 140.7 10.98C139.98 10.98 139.284 11.1 138.612 11.34C137.964 11.556 137.376 11.916 136.848 12.42C136.344 12.924 135.936 13.596 135.624 14.436C135.336 15.252 135.192 16.272 135.192 17.496C135.192 18.816 135.468 19.968 136.02 20.952C136.572 21.936 137.316 22.704 138.252 23.256C139.188 23.784 140.22 24.048 141.348 24.048C142.236 24.048 142.968 23.964 143.544 23.796C144.12 23.604 144.6 23.376 144.984 23.112C145.368 22.848 145.704 22.596 145.992 22.356C146.352 22.14 146.712 22.032 147.072 22.032C147.504 22.032 147.864 22.188 148.152 22.5C148.44 22.788 148.584 23.136 148.584 23.544C148.584 24.072 148.32 24.552 147.792 24.984C147.144 25.608 146.244 26.16 145.092 26.64C143.964 27.12 142.776 27.36 141.528 27.36Z" fill="#F2EEFF"/>
<defs>
<linearGradient id="paint0_linear_5_265" x1="-12.6986" y1="-1.05001" x2="73.1942" y2="11.44" gradientUnits="userSpaceOnUse">
<stop stop-color="#FF5A8B"/>
<stop offset="1" stop-color="#FFD1A7"/>
</linearGradient>
</defs>
</svg>
