<svg width="110" height="30" viewBox="0 0 110 30" fill="none" xmlns="http://www.w3.org/2000/svg">
<rect width="110" height="30" rx="4" fill="#161316"/>
<rect x="30" width="2" height="30" fill="#2C292D"/>
<path d="M21.5325 8.74088C21.5325 8.74088 22.9894 8.17276 22.8675 9.55238C22.8274 10.1205 22.4632 12.1091 22.1797 14.2598L21.2085 20.631C21.2085 20.631 21.1275 21.5644 20.3989 21.7268C19.6706 21.8888 18.5779 21.1586 18.3754 20.9963C18.2134 20.8744 15.3401 19.0481 14.3284 18.1556C14.0449 17.9119 13.7209 17.4251 14.3689 16.857L18.618 12.7988C19.1036 12.312 19.5892 11.1758 17.5657 12.5554L11.8995 16.4104C11.8995 16.4104 11.2519 16.8165 10.038 16.4513L7.407 15.6394C7.407 15.6394 6.43575 15.0308 8.09512 14.4221C12.1425 12.5149 17.1206 10.5671 21.5317 8.74088H21.5325Z" fill="#F2EEFF"/>
<path d="M21.5325 8.74088C21.5325 8.74088 22.9894 8.17276 22.8675 9.55238C22.8274 10.1205 22.4632 12.1091 22.1797 14.2598L21.2085 20.631C21.2085 20.631 21.1275 21.5644 20.3989 21.7268C19.6706 21.8888 18.5779 21.1586 18.3754 20.9963C18.2134 20.8744 15.3401 19.0481 14.3284 18.1556C14.0449 17.9119 13.7209 17.4251 14.3689 16.857L18.618 12.7988C19.1036 12.312 19.5892 11.1758 17.5657 12.5554L11.8995 16.4104C11.8995 16.4104 11.2519 16.8165 10.038 16.4513L7.407 15.6394C7.407 15.6394 6.43575 15.0308 8.09512 14.4221C12.1425 12.5149 17.1206 10.5671 21.5317 8.74088H21.5325Z" fill="url(#paint0_linear_264_12)"/>
<path d="M47.708 19C47.516 19 47.36 18.944 47.24 18.832C47.128 18.712 47.072 18.564 47.072 18.388V11.2H48.356V18.388C48.356 18.564 48.292 18.712 48.164 18.832C48.044 18.944 47.892 19 47.708 19ZM44.984 11.752C44.816 11.752 44.672 11.7 44.552 11.596C44.432 11.484 44.372 11.34 44.372 11.164C44.372 10.996 44.432 10.86 44.552 10.756C44.672 10.652 44.816 10.6 44.984 10.6H50.444C50.612 10.6 50.752 10.656 50.864 10.768C50.984 10.872 51.044 11.008 51.044 11.176C51.044 11.352 50.984 11.492 50.864 11.596C50.752 11.7 50.612 11.752 50.444 11.752H44.984ZM53.7683 19.12C53.1043 19.12 52.5283 18.984 52.0403 18.712C51.5523 18.432 51.1723 18.052 50.9003 17.572C50.6363 17.084 50.5043 16.528 50.5043 15.904C50.5043 15.2 50.6443 14.6 50.9243 14.104C51.2123 13.6 51.5843 13.216 52.0403 12.952C52.4963 12.68 52.9803 12.544 53.4923 12.544C53.8843 12.544 54.2563 12.624 54.6083 12.784C54.9603 12.936 55.2723 13.152 55.5443 13.432C55.8243 13.704 56.0443 14.028 56.2043 14.404C56.3643 14.772 56.4483 15.176 56.4563 15.616C56.4483 15.776 56.3843 15.908 56.2643 16.012C56.1443 16.116 56.0043 16.168 55.8443 16.168H51.1763L50.8883 15.148H55.4003L55.1723 15.364V15.064C55.1563 14.784 55.0643 14.54 54.8963 14.332C54.7283 14.116 54.5203 13.952 54.2723 13.84C54.0243 13.72 53.7643 13.66 53.4923 13.66C53.2523 13.66 53.0203 13.7 52.7963 13.78C52.5803 13.852 52.3843 13.972 52.2083 14.14C52.0403 14.308 51.9043 14.532 51.8003 14.812C51.7043 15.084 51.6563 15.424 51.6563 15.832C51.6563 16.272 51.7483 16.656 51.9323 16.984C52.1163 17.312 52.3643 17.568 52.6763 17.752C52.9883 17.928 53.3323 18.016 53.7083 18.016C54.0043 18.016 54.2483 17.988 54.4403 17.932C54.6323 17.868 54.7923 17.792 54.9203 17.704C55.0483 17.616 55.1603 17.532 55.2563 17.452C55.3763 17.38 55.4963 17.344 55.6163 17.344C55.7603 17.344 55.8803 17.396 55.9763 17.5C56.0723 17.596 56.1203 17.712 56.1203 17.848C56.1203 18.024 56.0323 18.184 55.8563 18.328C55.6403 18.536 55.3403 18.72 54.9563 18.88C54.5803 19.04 54.1843 19.12 53.7683 19.12ZM59.1087 18.388C59.1087 18.564 59.0487 18.712 58.9287 18.832C58.8167 18.944 58.6767 19 58.5087 19C58.3407 19 58.1967 18.944 58.0767 18.832C57.9647 18.712 57.9087 18.564 57.9087 18.388V10.732C57.9087 10.556 57.9687 10.412 58.0887 10.3C58.2087 10.18 58.3527 10.12 58.5207 10.12C58.6967 10.12 58.8367 10.18 58.9407 10.3C59.0527 10.412 59.1087 10.556 59.1087 10.732V18.388ZM63.7175 19.12C63.0535 19.12 62.4775 18.984 61.9895 18.712C61.5015 18.432 61.1215 18.052 60.8495 17.572C60.5855 17.084 60.4535 16.528 60.4535 15.904C60.4535 15.2 60.5935 14.6 60.8735 14.104C61.1615 13.6 61.5335 13.216 61.9895 12.952C62.4455 12.68 62.9295 12.544 63.4415 12.544C63.8335 12.544 64.2055 12.624 64.5575 12.784C64.9095 12.936 65.2215 13.152 65.4935 13.432C65.7735 13.704 65.9935 14.028 66.1535 14.404C66.3135 14.772 66.3975 15.176 66.4055 15.616C66.3975 15.776 66.3335 15.908 66.2135 16.012C66.0935 16.116 65.9535 16.168 65.7935 16.168H61.1255L60.8375 15.148H65.3495L65.1215 15.364V15.064C65.1055 14.784 65.0135 14.54 64.8455 14.332C64.6775 14.116 64.4695 13.952 64.2215 13.84C63.9735 13.72 63.7135 13.66 63.4415 13.66C63.2015 13.66 62.9695 13.7 62.7455 13.78C62.5295 13.852 62.3335 13.972 62.1575 14.14C61.9895 14.308 61.8535 14.532 61.7495 14.812C61.6535 15.084 61.6055 15.424 61.6055 15.832C61.6055 16.272 61.6975 16.656 61.8815 16.984C62.0655 17.312 62.3135 17.568 62.6255 17.752C62.9375 17.928 63.2815 18.016 63.6575 18.016C63.9535 18.016 64.1975 17.988 64.3895 17.932C64.5815 17.868 64.7415 17.792 64.8695 17.704C64.9975 17.616 65.1095 17.532 65.2055 17.452C65.3255 17.38 65.4455 17.344 65.5655 17.344C65.7095 17.344 65.8295 17.396 65.9255 17.5C66.0215 17.596 66.0695 17.712 66.0695 17.848C66.0695 18.024 65.9815 18.184 65.8055 18.328C65.5895 18.536 65.2895 18.72 64.9055 18.88C64.5295 19.04 64.1335 19.12 63.7175 19.12ZM70.3313 12.544C70.6753 12.544 70.9913 12.6 71.2793 12.712C71.5673 12.824 71.8153 12.968 72.0233 13.144C72.2393 13.312 72.4073 13.488 72.5273 13.672C72.6473 13.856 72.7073 14.016 72.7073 14.152L72.4313 14.164V13.204C72.4313 13.036 72.4873 12.892 72.5993 12.772C72.7113 12.652 72.8553 12.592 73.0313 12.592C73.2073 12.592 73.3513 12.652 73.4633 12.772C73.5753 12.884 73.6313 13.028 73.6313 13.204V18.496C73.6313 19.176 73.4873 19.728 73.1993 20.152C72.9113 20.584 72.5273 20.9 72.0473 21.1C71.5753 21.3 71.0553 21.4 70.4873 21.4C70.2873 21.4 70.0513 21.372 69.7793 21.316C69.5073 21.268 69.2553 21.208 69.0233 21.136C68.7993 21.064 68.6433 20.992 68.5553 20.92C68.3713 20.824 68.2473 20.712 68.1833 20.584C68.1273 20.456 68.1273 20.328 68.1833 20.2C68.2633 20.024 68.3713 19.916 68.5073 19.876C68.6433 19.836 68.7993 19.848 68.9753 19.912C69.0553 19.936 69.1793 19.98 69.3473 20.044C69.5153 20.108 69.7033 20.164 69.9113 20.212C70.1193 20.268 70.3153 20.296 70.4993 20.296C71.1393 20.296 71.6193 20.148 71.9393 19.852C72.2673 19.556 72.4313 19.152 72.4313 18.64V17.56L72.5633 17.644C72.5393 17.812 72.4633 17.984 72.3353 18.16C72.2153 18.328 72.0553 18.484 71.8553 18.628C71.6553 18.772 71.4233 18.892 71.1593 18.988C70.9033 19.076 70.6393 19.12 70.3673 19.12C69.7993 19.12 69.2913 18.98 68.8433 18.7C68.3953 18.412 68.0393 18.024 67.7753 17.536C67.5113 17.04 67.3793 16.472 67.3793 15.832C67.3793 15.192 67.5113 14.628 67.7753 14.14C68.0393 13.644 68.3913 13.256 68.8313 12.976C69.2793 12.688 69.7793 12.544 70.3313 12.544ZM70.5113 13.648C70.1193 13.648 69.7753 13.744 69.4793 13.936C69.1833 14.128 68.9513 14.388 68.7833 14.716C68.6153 15.044 68.5313 15.416 68.5313 15.832C68.5313 16.248 68.6153 16.62 68.7833 16.948C68.9513 17.276 69.1833 17.536 69.4793 17.728C69.7753 17.92 70.1193 18.016 70.5113 18.016C70.9033 18.016 71.2473 17.924 71.5433 17.74C71.8393 17.548 72.0713 17.288 72.2393 16.96C72.4073 16.624 72.4913 16.248 72.4913 15.832C72.4913 15.416 72.4073 15.044 72.2393 14.716C72.0713 14.38 71.8393 14.12 71.5433 13.936C71.2473 13.744 70.9033 13.648 70.5113 13.648ZM75.897 19C75.721 19 75.577 18.944 75.465 18.832C75.353 18.712 75.297 18.564 75.297 18.388V13.3C75.297 13.124 75.353 12.98 75.465 12.868C75.577 12.748 75.721 12.688 75.897 12.688C76.065 12.688 76.205 12.748 76.317 12.868C76.437 12.98 76.497 13.124 76.497 13.3V14.644L76.377 14.128C76.441 13.904 76.537 13.696 76.665 13.504C76.801 13.312 76.961 13.144 77.145 13C77.329 12.856 77.533 12.744 77.757 12.664C77.989 12.584 78.229 12.544 78.477 12.544C78.685 12.544 78.865 12.6 79.017 12.712C79.169 12.824 79.245 12.964 79.245 13.132C79.245 13.348 79.189 13.508 79.077 13.612C78.965 13.708 78.841 13.756 78.705 13.756C78.585 13.756 78.469 13.732 78.357 13.684C78.245 13.628 78.113 13.6 77.961 13.6C77.793 13.6 77.621 13.644 77.445 13.732C77.269 13.82 77.109 13.952 76.965 14.128C76.821 14.296 76.705 14.496 76.617 14.728C76.537 14.96 76.497 15.22 76.497 15.508V18.388C76.497 18.564 76.437 18.712 76.317 18.832C76.205 18.944 76.065 19 75.897 19ZM85.344 12.592C85.52 12.592 85.664 12.652 85.776 12.772C85.888 12.884 85.944 13.028 85.944 13.204V18.388C85.944 18.564 85.888 18.712 85.776 18.832C85.664 18.944 85.52 19 85.344 19C85.176 19 85.032 18.944 84.912 18.832C84.8 18.712 84.744 18.564 84.744 18.388V17.524L84.996 17.56C84.996 17.704 84.936 17.864 84.816 18.04C84.704 18.216 84.548 18.388 84.348 18.556C84.148 18.716 83.912 18.852 83.64 18.964C83.368 19.068 83.076 19.12 82.764 19.12C82.212 19.12 81.716 18.98 81.276 18.7C80.836 18.412 80.488 18.02 80.232 17.524C79.976 17.028 79.848 16.464 79.848 15.832C79.848 15.184 79.976 14.616 80.232 14.128C80.488 13.632 80.832 13.244 81.264 12.964C81.704 12.684 82.192 12.544 82.728 12.544C83.072 12.544 83.388 12.6 83.676 12.712C83.972 12.824 84.228 12.968 84.444 13.144C84.66 13.32 84.824 13.508 84.936 13.708C85.056 13.9 85.116 14.084 85.116 14.26L84.744 14.296V13.204C84.744 13.036 84.8 12.892 84.912 12.772C85.032 12.652 85.176 12.592 85.344 12.592ZM82.896 18.016C83.272 18.016 83.604 17.92 83.892 17.728C84.18 17.536 84.404 17.276 84.564 16.948C84.724 16.612 84.804 16.24 84.804 15.832C84.804 15.416 84.724 15.044 84.564 14.716C84.404 14.388 84.18 14.128 83.892 13.936C83.604 13.744 83.272 13.648 82.896 13.648C82.528 13.648 82.2 13.744 81.912 13.936C81.632 14.128 81.408 14.388 81.24 14.716C81.08 15.044 81 15.416 81 15.832C81 16.24 81.08 16.612 81.24 16.948C81.408 17.276 81.632 17.536 81.912 17.728C82.2 17.92 82.528 18.016 82.896 18.016ZM90.7932 12.58C91.3852 12.58 91.8412 12.728 92.1612 13.024C92.4812 13.312 92.6932 13.704 92.7972 14.2L92.6052 14.14L92.6892 13.948C92.7932 13.74 92.9492 13.532 93.1572 13.324C93.3732 13.108 93.6292 12.932 93.9252 12.796C94.2212 12.652 94.5372 12.58 94.8732 12.58C95.4252 12.58 95.8532 12.7 96.1572 12.94C96.4612 13.172 96.6732 13.488 96.7932 13.888C96.9132 14.28 96.9732 14.72 96.9732 15.208V18.388C96.9732 18.564 96.9172 18.712 96.8052 18.832C96.6932 18.944 96.5492 19 96.3732 19C96.2052 19 96.0612 18.944 95.9412 18.832C95.8292 18.712 95.7732 18.564 95.7732 18.388V15.22C95.7732 14.94 95.7332 14.684 95.6532 14.452C95.5812 14.22 95.4492 14.036 95.2572 13.9C95.0732 13.756 94.8172 13.684 94.4892 13.684C94.1772 13.684 93.8972 13.756 93.6492 13.9C93.4092 14.036 93.2212 14.22 93.0852 14.452C92.9492 14.684 92.8812 14.94 92.8812 15.22V18.388C92.8812 18.564 92.8252 18.712 92.7132 18.832C92.6012 18.944 92.4572 19 92.2812 19C92.1052 19 91.9612 18.944 91.8492 18.832C91.7372 18.712 91.6812 18.564 91.6812 18.388V15.208C91.6812 14.928 91.6412 14.672 91.5612 14.44C91.4892 14.208 91.3612 14.024 91.1772 13.888C90.9932 13.752 90.7372 13.684 90.4092 13.684C90.0972 13.684 89.8212 13.752 89.5812 13.888C89.3412 14.024 89.1532 14.208 89.0172 14.44C88.8892 14.672 88.8252 14.928 88.8252 15.208V18.388C88.8252 18.564 88.7652 18.712 88.6452 18.832C88.5332 18.944 88.3932 19 88.2252 19C88.0492 19 87.9052 18.944 87.7932 18.832C87.6812 18.712 87.6252 18.564 87.6252 18.388V13.3C87.6252 13.124 87.6812 12.98 87.7932 12.868C87.9052 12.748 88.0492 12.688 88.2252 12.688C88.3932 12.688 88.5332 12.748 88.6452 12.868C88.7652 12.98 88.8252 13.124 88.8252 13.3V14.008L88.5972 14.14C88.6532 13.964 88.7452 13.784 88.8732 13.6C89.0012 13.416 89.1612 13.248 89.3532 13.096C89.5532 12.944 89.7732 12.82 90.0132 12.724C90.2532 12.628 90.5132 12.58 90.7932 12.58Z" fill="#F2EEFF"/>
<defs>
<linearGradient id="paint0_linear_264_12" x1="7.12451" y1="21.7501" x2="25.2498" y2="15.3215" gradientUnits="userSpaceOnUse">
<stop stop-color="#FFD1A7"/>
<stop offset="1" stop-color="#FF5A8B"/>
</linearGradient>
</defs>
</svg>
